<?xml version="1.0" standalone="no"?>
<!DOCTYPE svg PUBLIC "-//W3C//DTD SVG 1.1//EN" "http://www.w3.org/Graphics/SVG/1.1/DTD/svg11.dtd" >
<svg>
<metadata>
Created by FontForge 20120731 at Wed Jun  1 09:53:53 2016
 By ,,,
Typeface (c) The Monotype Corporation plc. Data (c) The Monotype Corporation plc/Type Solutions Inc. 1990-91-92 All rights reservered.
</metadata>
<defs>
<font id="AmasisMT" horiz-adv-x="683" >
  <font-face 
    font-family="Amasis MT"
    font-weight="400"
    font-stretch="normal"
    units-per-em="2048"
    panose-1="2 4 6 3 5 3 4 2 2 3"
    ascent="1638"
    descent="-410"
    x-height="970"
    cap-height="1404"
    bbox="-311 -454 2138 1881"
    underline-thickness="102"
    underline-position="-154"
    unicode-range="U+0020-F002"
  />
<missing-glyph horiz-adv-x="1536" 
d="M256 0v1280h1024v-1280h-1024zM288 32h960v1216h-960v-1216z" />
    <glyph glyph-name=".notdef" horiz-adv-x="1536" 
d="M256 0v1280h1024v-1280h-1024zM288 32h960v1216h-960v-1216z" />
    <glyph glyph-name="glyph1" horiz-adv-x="0" 
 />
    <glyph glyph-name="glyph2" horiz-adv-x="512" 
 />
    <glyph glyph-name="space" unicode=" " horiz-adv-x="512" 
 />
    <glyph glyph-name="exclam" unicode="!" horiz-adv-x="491" 
d="M162 1411h168v-120l-19 -944h-129l-20 944v120zM246 189q45 0 77 -32t32 -77q0 -46 -32 -78t-77 -32q-46 0 -78 32t-32 78q0 45 32 77t78 32z" />
    <glyph glyph-name="quotedbl" unicode="&#x22;" horiz-adv-x="725" 
d="M142 946l-41 311q-9 70 -9 99q0 49 30 79t81 30q45 0 75 -32.5t30 -88.5q0 -26 -5 -57q-4 -22 -6 -35l-41 -306h-114zM468 946l-42 311q-9 70 -9 99q0 49 30 79t81 30q45 0 75 -32.5t30 -88.5q0 -26 -5 -57q-4 -22 -6 -35l-41 -306h-113z" />
    <glyph glyph-name="numbersign" unicode="#" horiz-adv-x="1365" 
d="M85 986h320l86 398h143l-86 -398h401l84 398h143l-85 -398h189v-143h-216l-73 -350h289v-143h-317l-84 -395h-144l85 395h-403l-82 -395h-144l83 395h-189v143h219l73 350h-292v143zM520 843l-73 -348h401l73 348h-401z" />
    <glyph glyph-name="dollar" unicode="$" horiz-adv-x="1003" 
d="M869 1251v-269h-124v32q0 101 -33 139t-140 60v-477q194 -84 270 -178.5t76 -218.5q0 -162 -107.5 -264.5t-249.5 -109.5v-183h-116v183q-167 4 -357 75v311h135q1 -13 1 -46q2 -100 33 -142q51 -67 188 -85v538q-137 73 -198 119.5t-98 114t-37 148.5q0 128 88.5 220.5
t253.5 110.5v88h118v-88q148 -14 297 -78zM454 1214q-88 -15 -133 -65.5t-45 -121.5q0 -69 39 -122t139 -108v417zM561 85q94 21 143 81t49 142q0 79 -42.5 135.5t-149.5 113.5v-472z" />
    <glyph glyph-name="percent" unicode="%" horiz-adv-x="1664" 
d="M49 1061q0 203 75 292t201 89q128 0 199 -85t71 -286q0 -210 -75.5 -299.5t-202.5 -89.5q-126 0 -197 85t-71 294zM178 1059q0 -180 41 -239t102 -59q64 0 98 50q46 68 46 260q0 175 -40.5 232.5t-100.5 57.5q-63 0 -104.5 -59.5t-41.5 -242.5zM1213 1442h121l-883 -1481
h-123zM1069 340q0 203 75 292t202 89t198.5 -85t71.5 -286q0 -210 -76 -299.5t-203 -89.5q-126 0 -197 85t-71 294zM1198 338q0 -180 41 -239t102 -59q64 0 98 50q46 68 46 260q0 175 -40.5 232.5t-100.5 57.5q-63 0 -104.5 -59.5t-41.5 -242.5z" />
    <glyph glyph-name="ampersand" unicode="&#x26;" horiz-adv-x="1451" 
d="M921 767h435v-95h-55q-47 0 -70.5 -20t-41.5 -85q-56 -203 -132 -316q85 -99 132.5 -126t114.5 -27q26 0 52 9v-116q-74 -28 -132 -28q-72 0 -141 38q-53 29 -132 120q-166 -158 -394 -158q-131 0 -237 52t-160.5 147t-54.5 206q0 127 72.5 225.5t245.5 192.5
q-96 136 -120.5 195.5t-24.5 123.5q0 123 91.5 208t246.5 85q156 0 239 -77.5t83 -200.5q0 -71 -33 -135t-100 -119q-47 -39 -160 -99l321 -405q36 59 59.5 136t23.5 113q0 29 -19 45t-72 16h-37v95zM567 857q131 75 174.5 133t43.5 131q0 71 -49.5 119.5t-126.5 48.5
t-124 -45t-47 -109q0 -53 28 -118q21 -50 101 -160zM501 683q-120 -72 -171.5 -145.5t-51.5 -154.5q0 -112 85.5 -197t202.5 -85q169 0 299 125z" />
    <glyph glyph-name="quotesingle" unicode="'" horiz-adv-x="384" 
d="M134 946l-41 311q-9 70 -9 99q0 49 30 79t81 30q45 0 75 -32.5t30 -88.5q0 -26 -5 -57q-4 -22 -6 -35l-41 -306h-114z" />
    <glyph glyph-name="parenleft" unicode="(" horiz-adv-x="619" 
d="M410 1442h148q-157 -265 -224 -516q-52 -193 -52 -436q0 -241 53 -437q67 -249 223 -507h-148q-134 185 -220 430.5t-86 505.5q0 265 76.5 497.5t229.5 462.5z" />
    <glyph glyph-name="parenright" unicode=")" horiz-adv-x="619" 
d="M209 1442q153 -230 229.5 -462.5t76.5 -497.5q0 -260 -86.5 -505.5t-219.5 -430.5h-148q155 258 223 507q53 196 53 437q0 243 -52 436q-67 251 -224 516h148z" />
    <glyph glyph-name="asterisk" unicode="*" horiz-adv-x="981" 
d="M418 1442h141v-66l-15 -283l268 98l63 21l43 -133l-62 -18l-275 -74l175 -226l38 -56l-112 -80l-39 57l-152 236l-158 -236l-41 -54l-112 82l39 55l182 222l-276 71l-62 21l43 133l62 -21l263 -101l-13 286v66z" />
    <glyph glyph-name="plus" unicode="+" horiz-adv-x="1365" 
d="M134 745h468v470h158v-470h471v-158h-471v-466h-158v466h-468v158z" />
    <glyph glyph-name="comma" unicode="," horiz-adv-x="491" 
d="M118 -276v80q74 39 104.5 78t40.5 100h-17q-48 0 -81 33t-33 81q0 45 32.5 77t77.5 32q55 0 94 -46t39 -126q0 -97 -65.5 -181.5t-191.5 -127.5z" />
    <glyph glyph-name="hyphen" unicode="-" horiz-adv-x="661" 
d="M64 559h534v-157h-534v157z" />
    <glyph glyph-name="period" unicode="." horiz-adv-x="491" 
d="M245 192q46 0 78.5 -32.5t32.5 -78.5t-32.5 -78.5t-78.5 -32.5t-78.5 32.5t-32.5 78.5t32.5 78.5t78.5 32.5z" />
    <glyph glyph-name="slash" unicode="/" horiz-adv-x="1131" 
d="M838 1377h166l-711 -1423h-166z" />
    <glyph glyph-name="zero" unicode="0" horiz-adv-x="1067" 
d="M109 673q0 390 134 564q108 140 294 140q191 0 293 -132q129 -166 129 -552q0 -403 -135 -578q-110 -143 -300 -143q-118 0 -212 63.5t-148.5 210.5t-54.5 427zM279 670q0 -355 83 -479q64 -95 171 -95q126 0 189.5 128t63.5 468q0 345 -73 452t-178 107
q-70 0 -128.5 -48t-93 -175.5t-34.5 -357.5z" />
    <glyph glyph-name="one" unicode="1" horiz-adv-x="1067" 
d="M564 1377h91v-1191q0 -50 18.5 -67.5t73.5 -17.5h93v-101h-536v101h114q45 0 61.5 17t16.5 68v827q0 54 -10 67q-14 17 -37 17q-32 0 -49 -1l-124 -11v91q207 22 288 201z" />
    <glyph glyph-name="two" unicode="2" horiz-adv-x="1067" 
d="M159 987v238q83 76 176 114t196 38q178 0 268.5 -103.5t90.5 -240.5q0 -107 -54.5 -235.5t-222 -330.5t-285.5 -319h361q81 0 99.5 15t18.5 67v86h126v-316h-809v125q195 202 248 264q152 174 241 313q61 95 89 185q21 70 21 137q0 103 -62.5 167t-165.5 64
q-98 0 -154 -52.5t-56 -148.5v-67h-126z" />
    <glyph glyph-name="three" unicode="3" horiz-adv-x="1067" 
d="M175 1014v250q102 64 177.5 88.5t164.5 24.5q176 0 274 -93t98 -238q0 -108 -58 -193t-160 -127q113 -36 176.5 -124.5t63.5 -208.5q0 -156 -90 -271q-118 -150 -352 -150q-90 0 -172.5 23.5t-157.5 70.5v273h131v-84q0 -76 39 -109q60 -49 169 -49q118 0 193 77t75 202
q0 92 -40.5 153t-115.5 90q-51 19 -194 30v135q172 0 252.5 70t80.5 178q0 106 -60.5 167.5t-163.5 61.5q-98 0 -159 -55q-46 -43 -46 -130v-62h-125z" />
    <glyph glyph-name="four" unicode="4" horiz-adv-x="1067" 
d="M677 1377h140v-907h159v-126h-159v-142q0 -66 15 -81q21 -20 83 -20h48v-101h-475v101h85q64 0 80 15.5t16 70.5v157h-571v159zM227 470h442v666z" />
    <glyph glyph-name="five" unicode="5" horiz-adv-x="1067" 
d="M223 1349h658v-143h-526l-20 -357q45 31 97 46t111 15q110 0 196.5 -51t135 -154.5t48.5 -232.5q0 -199 -110 -349.5t-337 -150.5q-89 0 -168 25t-147 75v277h137v-65q0 -110 40.5 -152t129.5 -42q127 0 207.5 92.5t80.5 275.5q0 159 -72.5 242.5t-177.5 83.5
q-62 0 -110.5 -24.5t-82.5 -74.5h-123z" />
    <glyph glyph-name="six" unicode="6" horiz-adv-x="1067" 
d="M928 1302v-247h-130v30q0 97 -24 125q-45 53 -144 53q-135 0 -214 -97q-109 -133 -127 -422q68 73 143.5 109t159.5 36q101 0 191.5 -50.5t139.5 -152.5t49 -239q0 -220 -120 -347.5t-313 -127.5q-198 0 -300 124q-133 163 -133 488q0 199 49 380q37 132 108.5 227
t157.5 140.5t217 45.5q79 0 151.5 -18.5t138.5 -56.5zM550 756q-113 0 -189.5 -85t-76.5 -241q0 -168 76.5 -256t184.5 -88q105 0 183.5 82.5t78.5 264.5q0 161 -72.5 242t-184.5 81z" />
    <glyph glyph-name="seven" unicode="7" horiz-adv-x="1067" 
d="M154 1349h809v-145q-178 -240 -304.5 -561.5t-135.5 -656.5h-152q2 214 65 450q54 200 169 428.5t198 338.5h-455q-45 0 -56.5 -11.5t-11.5 -50.5v-107h-126v315z" />
    <glyph glyph-name="eight" unicode="8" horiz-adv-x="1067" 
d="M742 712q109 -51 163.5 -133.5t54.5 -196.5q0 -178 -117.5 -294t-308.5 -116q-201 0 -314 111.5t-113 291.5q0 116 54.5 200.5t163.5 136.5q-92 54 -138.5 128.5t-46.5 169.5q0 158 109 262.5t293 104.5q177 0 280.5 -99.5t103.5 -254.5q0 -102 -46 -180t-138 -131z
M301 1019q0 -118 64.5 -184.5t169.5 -66.5q102 0 166 66.5t64 180.5q0 109 -64 174.5t-169 65.5q-100 0 -165.5 -66t-65.5 -170zM276 373q0 -128 73.5 -204t188.5 -76q110 0 181 74.5t71 199.5q0 128 -70.5 201.5t-186.5 73.5q-110 0 -183.5 -75.5t-73.5 -193.5z" />
    <glyph glyph-name="nine" unicode="9" horiz-adv-x="1067" 
d="M151 47v247h129v-30q0 -97 24 -126q45 -52 145 -52q135 0 214 97q108 133 126 422q-67 -72 -142.5 -108.5t-159.5 -36.5q-101 0 -192 50t-140 152.5t-49 239.5q0 220 120.5 347.5t313.5 127.5q198 0 299 -124q133 -163 133 -488q0 -200 -49 -380q-36 -132 -108 -227
t-158 -140.5t-216 -45.5q-79 0 -151.5 19t-138.5 56zM529 593q112 0 188.5 84.5t76.5 241.5q0 168 -76.5 256t-184.5 88q-105 0 -183.5 -82.5t-78.5 -264.5q0 -161 72.5 -242t185.5 -81z" />
    <glyph glyph-name="colon" unicode=":" horiz-adv-x="491" 
d="M245 999q46 0 78.5 -32.5t32.5 -78.5t-32.5 -78.5t-78.5 -32.5t-78.5 32.5t-32.5 78.5t32.5 78.5t78.5 32.5zM245 192q46 0 78.5 -32.5t32.5 -78.5t-32.5 -78.5t-78.5 -32.5t-78.5 32.5t-32.5 78.5t32.5 78.5t78.5 32.5z" />
    <glyph glyph-name="semicolon" unicode=";" horiz-adv-x="491" 
d="M246 999q46 0 78.5 -32.5t32.5 -78.5t-32.5 -78.5t-78.5 -32.5t-78.5 32.5t-32.5 78.5t32 78.5t79 32.5zM118 -276v80q74 39 104.5 78t40.5 100h-17q-48 0 -81 33t-33 81q0 45 32.5 77t77.5 32q55 0 94 -46t39 -126q0 -97 -65.5 -181.5t-191.5 -127.5z" />
    <glyph glyph-name="less" unicode="&#x3c;" horiz-adv-x="1365" 
d="M1230 137l-1094 459v142l1094 459v-170l-881 -359l881 -360v-171z" />
    <glyph glyph-name="equal" unicode="=" horiz-adv-x="1365" 
d="M136 984h1094v-157h-1094v157zM136 513h1094v-158h-1094v158z" />
    <glyph glyph-name="greater" unicode="&#x3e;" horiz-adv-x="1365" 
d="M136 1197l1094 -459v-142l-1094 -459v170l881 360l-881 360v170z" />
    <glyph glyph-name="question" unicode="?" horiz-adv-x="875" 
d="M66 1062v259q83 61 172 91t185 30q182 0 282.5 -94.5t100.5 -242.5q0 -61 -17.5 -113.5t-50.5 -105.5q-25 -39 -121 -154.5t-131 -201t-41 -198.5h-132q-1 89 19.5 173.5t52.5 142.5q25 44 111 158q66 87 80 109q30 50 46 100t16 100q0 91 -61.5 150t-165.5 59
q-118 0 -180 -78q-35 -43 -35 -137v-47h-130zM382 190q46 0 78 -32t32 -78t-32.5 -78t-77.5 -32q-46 0 -78.5 32t-32.5 78t32.5 78t78.5 32z" />
    <glyph glyph-name="at" unicode="@" horiz-adv-x="2069" 
d="M1347 1056h182l-146 -672q-32 -147 -32 -165q0 -26 16 -42.5t45 -16.5q60 0 147 61q115 80 182 214t67 285q0 176 -90 322t-262 227.5t-371 81.5q-228 0 -419.5 -109t-298.5 -315.5t-107 -446.5q0 -226 96 -400t303 -270.5t470 -96.5q159 0 299 39t226.5 98t178.5 168
h172q-59 -100 -109 -152q-80 -83 -197.5 -153t-255 -106t-321.5 -36q-485 0 -750 249.5t-265 650.5q0 284 129 526.5t347 368.5t510 126q438 0 678 -277q185 -213 185 -499q0 -291 -192.5 -503.5t-406.5 -212.5q-109 0 -154 47q-34 35 -41 117q-154 -164 -307 -164
q-88 0 -172.5 52t-137.5 160.5t-53 235.5q0 145 77 306.5t199 245t243 83.5q95 0 166 -43t138 -139zM678 430q0 -132 64 -207.5t143 -75.5t165 57.5t146 182.5t60 268q0 129 -67.5 204t-163.5 75q-85 0 -150 -51q-101 -80 -149 -209.5t-48 -243.5z" />
    <glyph glyph-name="A" unicode="A" horiz-adv-x="1387" 
d="M611 1423h166l420 -1189q31 -90 62 -117q18 -16 70 -16h39v-101h-460v101h53q54 0 67.5 11t13.5 36q0 24 -22 86l-75 217h-539l-80 -225q-19 -52 -19 -74q0 -24 19 -40q13 -11 65 -11h57v-101h-429v101h37q49 0 75.5 21.5t50.5 89.5zM448 574h452l-226 637z" />
    <glyph glyph-name="B" unicode="B" horiz-adv-x="1280" 
d="M95 1303v101h495q195 0 289 -31.5t155 -114t61 -201.5q0 -109 -49 -185.5t-147 -120.5q136 -33 212 -117.5t76 -234.5q0 -110 -44.5 -190.5t-108.5 -126.5t-138 -64t-218 -18h-583v101h49q62 0 79 23q12 15 12 85v999q0 61 -17 78t-74 17h-49zM401 791h196q150 0 222 49
q100 67 100 207q0 107 -70.5 170t-222.5 63h-225v-489zM401 123h291q160 0 235.5 70t75.5 195q0 105 -45.5 168t-116.5 87.5t-205 24.5h-235v-545z" />
    <glyph glyph-name="C" unicode="C" horiz-adv-x="1365" 
d="M1259 1326v-317h-147q-1 153 -19.5 192t-91.5 71q-95 41 -214 41q-214 0 -353.5 -157t-139.5 -448q0 -279 143 -437.5t347 -158.5q122 0 251 47t224 132v-171q-94 -76 -226.5 -117t-268.5 -41q-191 0 -343 91.5t-233.5 261.5t-81.5 377q0 287 147 487q192 263 542 263
q126 0 248 -30t216 -86z" />
    <glyph glyph-name="D" unicode="D" horiz-adv-x="1493" 
d="M93 1404h600q241 0 383.5 -69.5t229 -231.5t86.5 -392q0 -358 -215 -563q-155 -148 -437 -148h-647v101h48q62 0 79 23q11 15 11 88v990l-1 26q0 42 -15 57q-21 18 -74 18h-48v101zM407 1276v-1152h284q60 0 146.5 14t135.5 44q68 42 121 115t80 173.5t27 232.5
q0 210 -70 341t-184 181.5t-289 50.5h-251z" />
    <glyph glyph-name="E" unicode="E" horiz-adv-x="1237" 
d="M99 1404h1027v-314h-130v102q0 42 -9 57t-33 23q-11 3 -84 5h-457v-492h359q62 0 80 17t18 72v47h115v-402h-115v63q0 47 -20.5 63t-86.5 16h-350v-537h517q56 0 73 18.5t17 81.5v87h131v-311h-1052v101h50q53 0 70 17.5t17 80.5v1016q0 54 -17 71t-70 17h-50v101z" />
    <glyph glyph-name="F" unicode="F" horiz-adv-x="1195" 
d="M100 1404h1037v-313h-129v111q0 41 -20 57.5t-94 16.5h-480v-486h334q63 0 80.5 17.5t17.5 79.5v37h115v-402h-115v54q0 56 -18.5 72t-91.5 16h-322v-460q0 -56 5 -66q8 -20 28 -30q13 -7 64 -7h59v-101h-470v101h45q46 0 64 9.5t25 29.5q5 14 5 80v981q0 66 -18 84
t-83 18h-38v101z" />
    <glyph glyph-name="G" unicode="G" horiz-adv-x="1451" 
d="M937 668h471v-103h-57q-41 0 -58 -9t-24 -27q-4 -12 -4 -73v-355q-133 -77 -241 -108t-240 -31q-305 0 -495 199t-190 533q0 285 146 481q199 267 569 267q126 0 238.5 -28t212.5 -84v-320h-147v68q0 92 -22 130t-100.5 72t-195.5 34q-224 0 -355 -146
q-155 -173 -155 -460q0 -291 143.5 -449.5t360.5 -158.5q71 0 144.5 18t149.5 53v315q0 46 -18.5 62.5t-78.5 16.5h-54v103z" />
    <glyph glyph-name="H" unicode="H" horiz-adv-x="1536" 
d="M92 1404h454v-101h-45q-59 0 -79 -20q-15 -15 -15 -77v-393h723v393q0 64 -17 80.5t-83 16.5h-39v101h453v-101h-46q-47 0 -64 -9.5t-24 -27.5q-4 -12 -4 -71v-997q0 -61 17.5 -79t74.5 -18h46v-101h-453v101h39q54 0 67 6q19 9 27 26q6 14 6 65v485h-723v-485
q0 -55 12 -71q20 -26 82 -26h45v-101h-454v101h52q60 0 77 24q10 15 10 73v1008q0 63 -15 77q-20 20 -81 20h-43v101z" />
    <glyph glyph-name="I" unicode="I" 
d="M114 1404h454v-101h-35q-68 0 -89 -21q-15 -16 -15 -96v-998q0 -54 16 -68q21 -19 88 -19h35v-101h-454v101h42q65 0 80.5 16.5t15.5 93.5v1023q0 38 -18.5 53.5t-77.5 15.5h-42v101z" />
    <glyph glyph-name="J" unicode="J" horiz-adv-x="981" 
d="M453 1404h462v-101h-49q-44 0 -61.5 -9.5t-24.5 -27.5q-4 -11 -4 -64v-793q0 -221 -109 -333q-110 -113 -311 -113q-150 0 -289 70v271h130v-61q0 -81 42 -120.5t134 -39.5q132 0 189 96q39 67 39 243v788q0 58 -15 73q-22 20 -78 20h-55v101z" />
    <glyph glyph-name="K" unicode="K" horiz-adv-x="1323" 
d="M96 1404h448v-101h-65q-42 0 -60 -21q-13 -15 -13 -80v-454l446 454q32 32 39.5 44t7.5 23q0 16 -13.5 25t-65.5 9v101h452v-101h-27q-62 0 -110.5 -22.5t-102.5 -78.5l-440 -454l503 -519q77 -79 138 -109q39 -18 110 -19v-101h-509v101h40q32 0 43 9t11 25
q0 14 -7.5 26.5t-46.5 52.5l-468 486v-536q0 -31 20 -47t78 -16h40v-101h-448v101h52q51 0 69 15t18 47l-1 24v1015l1 31q0 35 -19.5 52.5t-67.5 17.5h-52v101z" />
    <glyph glyph-name="L" unicode="L" horiz-adv-x="1173" 
d="M99 1404h471v-101h-53q-58 0 -74.5 -8t-24.5 -26q-5 -13 -5 -75v-1072h485q54 0 71 18t17 80v112h133v-332h-1020v101h43q48 0 65.5 9t24.5 28q5 11 5 67v1006q0 57 -17.5 74.5t-77.5 17.5h-43v101z" />
    <glyph glyph-name="M" unicode="M" horiz-adv-x="1813" 
d="M96 1404h408l403 -1207l407 1207h403v-101h-42q-65 0 -83 -22q-13 -16 -13 -82v-1002q0 -62 15 -76q20 -20 81 -20h42v-101h-444v101h41q68 0 82.5 19t14.5 99v1084l-439 -1303h-169l-436 1296v-1099q0 -61 17.5 -78.5t77.5 -17.5h42v-101h-408v101h46q59 0 78 20
q15 16 15 86v992q0 69 -17 86.5t-76 17.5h-46v101z" />
    <glyph glyph-name="N" unicode="N" horiz-adv-x="1472" 
d="M91 1404h403l639 -1138v963q0 41 -19.5 57.5t-83.5 16.5h-35v101h417v-101h-44q-61 0 -77.5 -17.5t-16.5 -86.5v-1218h-182l-723 1287v-1062q0 -66 13 -82q19 -23 84 -23h40v-101h-415v101h51q55 0 71 18t16 95v998q0 57 -16 74t-51 17h-71v101z" />
    <glyph glyph-name="O" unicode="O" horiz-adv-x="1557" 
d="M104 686q0 351 191 553.5t487 202.5q300 0 485.5 -196.5t185.5 -537.5q0 -339 -194 -542t-489 -203q-290 0 -478 195.5t-188 527.5zM295 701q0 -305 134.5 -454.5t351.5 -149.5q209 0 344 155.5t135 469.5q0 289 -133 437t-347 148q-215 0 -350 -151t-135 -455z" />
    <glyph glyph-name="P" unicode="P" horiz-adv-x="1216" 
d="M97 1303v101h562q161 0 254 -36.5t150 -127.5t57 -221q0 -108 -40.5 -186.5t-104 -125t-138.5 -58.5q-110 -19 -178 -19h-256v-441q0 -55 19.5 -71.5t93.5 -16.5h43v-101h-462v101h36q68 0 88 19q15 15 15 82v1006q0 60 -18.5 77.5t-84.5 17.5h-36zM403 751h200
q186 0 264 68.5t78 192.5q0 128 -73 198.5t-231 70.5h-238v-530z" />
    <glyph glyph-name="Q" unicode="Q" horiz-adv-x="1557" 
d="M599 -18q-139 38 -228 105q-131 99 -199 251.5t-68 354.5q0 345 191 547t487 202q300 0 485.5 -196.5t185.5 -537.5q0 -306 -159 -501.5t-414 -236.5q76 -72 190 -108t314 -38v-111q-67 -6 -119 -6q-215 0 -385 75t-281 200zM295 701q0 -305 134.5 -454.5t351.5 -149.5
q209 0 344 155.5t135 469.5q0 289 -133 437t-347 148q-215 0 -350 -151t-135 -455z" />
    <glyph glyph-name="R" unicode="R" horiz-adv-x="1301" 
d="M96 1303v101h568q205 0 309 -73q145 -101 145 -302q0 -142 -71.5 -240t-202.5 -137l236 -421q40 -69 87 -99.5t114 -30.5h48v-101h-315l-350 630h-263v-436q0 -58 18 -75.5t79 -17.5h41v-101h-443v101h40q72 0 89 26q9 14 9 87v992q0 62 -17.5 79.5t-80.5 17.5h-40z
M401 752h206q181 0 259 69.5t78 194.5q0 126 -75 196t-237 70h-231v-530z" />
    <glyph glyph-name="S" unicode="S" horiz-adv-x="1088" 
d="M950 1354v-310h-138v54q0 95 -17.5 128.5t-82.5 63.5t-157 30q-120 0 -186 -60.5t-66 -149.5q0 -82 55 -144q55 -63 282 -177q154 -77 203 -114q70 -53 113 -129.5t43 -177.5q0 -176 -122.5 -290.5t-343.5 -114.5q-128 0 -237.5 21t-201.5 62v352h147v-78
q0 -85 28.5 -131.5t99 -75.5t162.5 -29q132 0 209.5 71.5t77.5 177.5q0 93 -52 157q-52 63 -232.5 153.5t-238.5 133.5q-83 62 -127 139.5t-44 163.5q0 93 52.5 179t153 134.5t237.5 48.5q86 0 194 -24t189 -64z" />
    <glyph glyph-name="T" unicode="T" horiz-adv-x="1323" 
d="M48 1404h1226v-337h-132v128q0 44 -5 54q-7 16 -26.5 24.5t-66.5 8.5h-295v-1072q0 -72 14 -87q19 -22 91 -22h42v-101h-470v101h56q59 0 75.5 17t16.5 82v1082h-288q-71 0 -89 -17.5t-18 -90.5v-107h-131v337z" />
    <glyph glyph-name="U" unicode="U" horiz-adv-x="1472" 
d="M60 1404h459v-101h-49q-63 0 -80 -26q-10 -15 -10 -89v-683q0 -205 87 -307t283 -102q187 0 279 93.5t92 294.5v738q0 48 -17.5 64.5t-74.5 16.5h-46v101h428v-101h-51q-51 0 -68.5 -16t-17.5 -54v-739q0 -264 -134 -397q-135 -134 -395 -134q-183 0 -302 57
t-181.5 166.5t-62.5 297.5v718q0 65 -18.5 83t-82.5 18h-38v101z" />
    <glyph glyph-name="V" unicode="V" horiz-adv-x="1387" 
d="M18 1404h471v-101h-47q-54 0 -69.5 -11.5t-15.5 -33.5q0 -21 18 -73l337 -961l336 938q20 57 20 83q0 28 -18.5 43t-70.5 15h-46v101h436v-101h-42q-44 0 -68 -20t-52 -98l-430 -1204l-167 2l-419 1186q-33 95 -59 118q-19 16 -73 16h-41v101z" />
    <glyph glyph-name="W" unicode="W" horiz-adv-x="1963" 
d="M19 1404h458v-101h-62q-42 0 -56.5 -12t-14.5 -34q0 -21 13 -71l252 -930l306 1148h166l301 -1148l249 903q15 56 15 88q0 28 -17 42t-75 14h-43v101h432v-101h-28q-60 0 -91 -27t-56 -120l-322 -1175h-168l-299 1150l-306 -1150h-171l-311 1178q-25 94 -56 123
q-23 21 -80 21h-36v101z" />
    <glyph glyph-name="X" unicode="X" horiz-adv-x="1365" 
d="M74 1404h479v-101h-28q-42 0 -57 -11.5t-15 -32.5q0 -23 39 -81l207 -319l212 303q48 70 48 105q0 17 -12 26.5t-46 9.5h-43v101h440v-101q-78 0 -122.5 -26.5t-114.5 -127.5l-285 -410l306 -469q70 -108 122 -144q36 -25 94 -25h23v-101h-482v101h42q41 0 51.5 8
t10.5 24q0 27 -49 101l-225 348l-264 -380q-32 -46 -32 -67q0 -16 11.5 -25t51.5 -9h44v-101h-436v101h30q59 0 91 21q48 33 117 132l310 450l-299 458q-57 87 -98 114t-93 27h-28v101z" />
    <glyph glyph-name="Y" unicode="Y" horiz-adv-x="1344" 
d="M14 1404h469v-101h-41q-46 0 -59.5 -10t-13.5 -27q0 -14 35 -73l289 -486l294 466q42 67 42 92q0 18 -13.5 28t-64.5 10h-58v101h436v-101q-70 0 -97 -16t-69 -81l-406 -644v-388q0 -42 19 -57.5t88 -15.5h40v-101h-471v101h50q63 0 83 23q14 16 14 78v352l-387 639
q-41 69 -70.5 89.5t-76.5 20.5h-32v101z" />
    <glyph glyph-name="Z" unicode="Z" horiz-adv-x="1259" 
d="M118 1404h1029v-131l-848 -1143h637q59 0 78 8.5t26 25t7 83.5v112h129v-359h-1088v130l848 1143h-550q-103 0 -121.5 -15.5t-18.5 -83.5v-116h-128v346z" />
    <glyph glyph-name="bracketleft" unicode="[" horiz-adv-x="597" 
d="M136 1404h392v-111h-243v-1608h243v-114h-392v1833z" />
    <glyph glyph-name="backslash" unicode="\" horiz-adv-x="1131" 
d="M134 1377h166l697 -1405h-167z" />
    <glyph glyph-name="bracketright" unicode="]" horiz-adv-x="597" 
d="M461 1404v-1833h-392v114h243v1608h-243v111h392z" />
    <glyph glyph-name="asciicircum" unicode="^" horiz-adv-x="961" 
d="M239 690h-185l353 801h145l355 -801h-181l-247 597z" />
    <glyph glyph-name="underscore" unicode="_" horiz-adv-x="1131" 
d="M-31 -407v130h1193v-130h-1193z" />
    <glyph glyph-name="grave" unicode="`" 
d="M335 1110l-218 263h200l133 -263h-115z" />
    <glyph glyph-name="a" unicode="a" horiz-adv-x="1003" 
d="M161 689v204q78 53 163.5 79.5t179.5 26.5q125 0 203.5 -44.5t105.5 -106t27 -214.5v-403q0 -88 16 -113q11 -17 35 -17q36 0 88 28v-101q-67 -32 -102.5 -42t-68.5 -10q-53 0 -85.5 34t-41.5 119q-68 -82 -135.5 -117.5t-161.5 -35.5q-137 0 -220 70t-83 206
q0 98 53 172t165 117.5t382 107.5q-2 143 -49 194.5t-144 51.5q-104 0 -159 -48q-39 -34 -39 -116v-42h-129zM681 543q-213 -58 -275 -82q-83 -31 -121 -79t-38 -111q0 -75 47 -121.5t123 -46.5q120 0 192 73t72 223v144z" />
    <glyph glyph-name="b" unicode="b" horiz-adv-x="1088" 
d="M-8 1411l301 31v-605q59 81 131.5 121.5t172.5 40.5q176 0 290.5 -128.5t114.5 -361.5q0 -248 -124.5 -390.5t-299.5 -142.5q-88 0 -154 31t-131 100l-61 -131h-97v1261q0 58 -14.5 72.5t-72.5 14.5h-56v87zM281 465q0 -172 82.5 -264.5t200.5 -92.5q109 0 186 94.5
t77 286.5q0 195 -76 287.5t-190 92.5q-120 0 -200 -97.5t-80 -306.5z" />
    <glyph glyph-name="c" unicode="c" horiz-adv-x="981" 
d="M885 912v-285h-137v88q0 89 -35 121q-49 45 -148 45q-128 0 -213 -99t-85 -291q0 -188 84 -283.5t208 -95.5q156 0 326 137v-150q-159 -129 -354 -129q-193 0 -314 132t-121 368q0 243 135 383.5t343 140.5q81 0 158.5 -20.5t152.5 -61.5z" />
    <glyph glyph-name="d" unicode="d" horiz-adv-x="1109" 
d="M648 1412l304 30v-1231q0 -68 14 -84t60 -16q17 0 63 3v-89l-282 -25q-12 61 -16 143q-50 -83 -125 -125t-176 -42q-178 0 -291.5 127.5t-113.5 360.5q0 250 126 392.5t308 142.5q86 0 154 -32.5t118 -97.5v371q0 57 -14 71t-67 14l-62 -1v88zM259 488q0 -196 77 -288
t194 -92q111 0 193 98t82 289q0 187 -80 280t-201 93q-113 0 -189 -93.5t-76 -286.5z" />
    <glyph glyph-name="e" unicode="e" horiz-adv-x="1003" 
d="M929 501h-668q0 -200 85.5 -296.5t219.5 -96.5q167 0 342 155v-149q-162 -144 -372 -144q-199 0 -324 133t-125 366q0 155 57.5 280t163 187.5t228.5 62.5q117 0 211.5 -55.5t137.5 -160t44 -282.5zM761 613q-8 140 -72.5 208t-161.5 68q-95 0 -165 -68t-91 -208h490z
" />
    <glyph glyph-name="f" unicode="f" horiz-adv-x="576" 
d="M48 853v117h131v112q0 52 15 122.5t53 119t106 83.5t159 35q102 0 216 -56v-186h-118v40q0 59 -22 80q-32 31 -87 31q-83 0 -120 -64t-37 -234v-83h206v-117h-206v-657q0 -76 13 -89.5t77 -13.5h46v-93h-432v93h42q43 0 59.5 8.5t24.5 28.5q5 11 5 66v657h-131z" />
    <glyph glyph-name="g" unicode="g" horiz-adv-x="1045" 
d="M1009 970v-120h-179q34 -46 47 -82q22 -64 22 -136q0 -114 -51.5 -198.5t-145.5 -123.5q-69 -29 -218 -36q-73 -3 -95 -9q-39 -11 -57 -32t-18 -41q0 -36 47 -52t244 -25q130 -6 163 -11q82 -12 131.5 -40t77.5 -76.5t28 -112.5q0 -89 -54.5 -167.5t-165.5 -120
t-282 -41.5q-162 0 -239 22q-108 30 -157.5 84t-49.5 133q0 80 54.5 141.5t168.5 88.5q-70 31 -92 55q-28 33 -28 76q0 52 39.5 96t135.5 73q-94 37 -150 120t-56 199q0 162 105 263.5t288 101.5q47 0 91.5 -7t87.5 -22h308zM291 643q0 -130 64 -198t169 -68q96 0 156 65.5
t60 191.5q0 130 -62.5 198.5t-161.5 68.5q-67 0 -118.5 -31t-79 -95t-27.5 -132zM204 -183q0 -65 54 -102q87 -59 259 -59q183 0 270 62q63 45 63 115q0 57 -60 97t-267 40q-191 0 -255 -45.5t-64 -107.5z" />
    <glyph glyph-name="h" unicode="h" horiz-adv-x="1088" 
d="M17 1408l303 34v-606q54 77 125.5 116t176.5 39q168 0 250 -108q60 -78 60 -254v-484q0 -31 11 -40q15 -12 65 -12h39v-93h-398v93h32q58 0 70.5 14t12.5 93v414q0 136 -48.5 189.5t-140.5 53.5q-113 0 -184 -79.5t-71 -250.5v-344q0 -63 13 -76.5t63 -13.5h40v-93h-395
v93h41q48 0 62 16t14 82v1039q0 62 -12.5 75t-77.5 13h-51v90z" />
    <glyph glyph-name="i" unicode="i" horiz-adv-x="512" 
d="M242 1427q46 0 78.5 -32.5t32.5 -78.5t-32.5 -78.5t-78.5 -32.5t-78.5 32.5t-32.5 78.5t32 78.5t79 32.5zM38 955l300 28v-798q0 -66 11 -79t56 -13h47v-93h-396v93h47q48 0 60 14q16 18 16 86v562q0 76 -15 92t-75 16h-51v92z" />
    <glyph glyph-name="j" unicode="j" horiz-adv-x="512" 
d="M256 1425q47 0 79 -32.5t32 -78.5t-32.5 -78.5t-78.5 -32.5t-78.5 32.5t-32.5 78.5t32.5 78.5t78.5 32.5zM45 863v93l306 27v-1001q0 -244 -80 -340t-222 -96q-105 0 -183 32v195h107q2 -77 25 -103.5t68 -26.5q60 0 89.5 45t29.5 261v829q0 53 -15 70t-58 17l-8 -1
q-9 -1 -15 -1h-44z" />
    <glyph glyph-name="k" unicode="k" horiz-adv-x="1003" 
d="M12 1410l302 32v-888l300 239q44 35 44 56q0 13 -10.5 20.5t-49.5 7.5h-19v93h409v-93q-55 0 -83.5 -11.5t-87.5 -59.5l-328 -252l365 -370q57 -57 93 -73.5t86 -17.5v-93h-411v93h21q23 0 35 9q8 6 8 17q0 23 -43 65l-329 326v-326l1 -26q0 -40 12.5 -52.5t58.5 -12.5
h46v-93h-394v93h38q54 0 67 20q8 11 10 83v1043q0 58 -12.5 71t-70.5 13h-58v87z" />
    <glyph glyph-name="l" unicode="l" horiz-adv-x="512" 
d="M33 1318v91l307 33v-1252q0 -71 14.5 -84t100.5 -13v-93h-402v93h32q62 0 77 15.5t15 81.5v1035q0 65 -14.5 80t-73.5 15q-23 0 -56 -2z" />
    <glyph glyph-name="m" unicode="m" horiz-adv-x="1707" 
d="M35 945l279 25q18 -60 20 -143q49 84 124.5 125.5t177.5 41.5q112 0 182.5 -46.5t105.5 -139.5q53 90 131 134.5t182 44.5q105 0 180.5 -43t109.5 -128q25 -60 25 -182v-480q0 -43 20 -55q10 -6 91 -6v-93h-398v93h39q53 0 66.5 16.5t13.5 95.5v390q0 109 -11 147
q-16 50 -60.5 83t-112.5 33q-115 0 -186.5 -78.5t-71.5 -242.5v-385q0 -40 14 -51q11 -8 97 -8v-93h-393v93q72 0 88.5 7t23.5 24t7 81v390q0 131 -30 182q-49 83 -157 83q-114 0 -186 -77.5t-72 -234.5v-389q0 -39 13.5 -52.5t58.5 -13.5h43v-93h-395v93h41q47 0 63 17.5
t16 83.5v565q0 65 -13.5 81.5t-48.5 16.5l-35 -2l-42 -1v91z" />
    <glyph glyph-name="n" unicode="n" horiz-adv-x="1109" 
d="M39 947l277 26q10 -35 15 -91l5 -52q53 82 129 123t175 41q165 0 250 -107q60 -76 60 -255v-487q0 -31 11 -40q15 -12 64 -12h38v-93h-396v93h32q60 0 74 19q9 11 9 89v417q0 136 -49 189.5t-141 53.5q-116 0 -186 -78.5t-70 -251.5v-347q0 -64 12.5 -77.5t63.5 -13.5h41
v-93h-394v93h39q49 0 63 16t14 82v566q0 70 -11 85t-45 15q-10 0 -80 -3v93z" />
    <glyph glyph-name="o" unicode="o" horiz-adv-x="1109" 
d="M1023 497q0 -59 -15 -138.5t-53 -150.5t-98.5 -127t-137.5 -83.5t-179 -27.5q-208 0 -331 131t-123 367q0 245 134.5 388t348.5 143q205 0 329.5 -131t124.5 -371zM852 488q0 199 -84 295.5t-211 96.5q-128 0 -214.5 -101.5t-86.5 -302.5q0 -175 81 -281.5t221 -106.5
q126 0 210 99.5t84 300.5z" />
    <glyph glyph-name="p" unicode="p" horiz-adv-x="1109" 
d="M22 944l279 26q12 -77 14 -143q63 88 133.5 127.5t168.5 39.5q176 0 291.5 -128t115.5 -357q0 -251 -140 -411q-111 -128 -291 -128q-92 0 -163 34q-53 26 -115 95v-336q0 -58 5 -71q6 -17 19 -23q10 -5 56 -5h52v-93h-411v93h36q59 0 71.5 14t12.5 91v986q0 70 -14 85
t-70 15h-50v89zM301 481q0 -193 81 -287.5t202 -94.5q114 0 179 79q86 108 86 302q0 205 -91 305q-69 75 -180 75q-112 0 -194.5 -97.5t-82.5 -281.5z" />
    <glyph glyph-name="q" unicode="q" horiz-adv-x="1088" 
d="M859 994h96v-1221l1 -41q0 -42 15 -55t77 -13h26v-93h-414v93h38q72 0 86 15.5t14 103.5v349q-58 -83 -129 -122.5t-178 -39.5q-170 0 -273 118q-128 146 -128 378q0 245 125 386.5t304 141.5q93 0 170 -37q54 -27 109 -88zM532 864q-113 0 -191.5 -96t-78.5 -286
q0 -193 79 -288.5t193 -95.5q115 0 195 96t80 301q0 187 -79 278t-198 91z" />
    <glyph glyph-name="r" unicode="r" horiz-adv-x="725" 
d="M45 943l270 27q18 -98 22 -176q53 95 123 142t158 47q54 0 103 -24v-204h-112v29q0 35 -13 49q-18 17 -47 17q-67 0 -126 -85q-86 -123 -86 -336v-268q0 -40 14 -54t56 -14h56v-93h-399v93h29q56 0 72 16.5t16 74.5v580q0 58 -14.5 73t-66.5 15h-55v91z" />
    <glyph glyph-name="s" unicode="s" horiz-adv-x="853" 
d="M729 937v-252h-124v71q0 56 -15 81.5t-60.5 44.5t-105.5 19q-85 0 -130 -40t-45 -99q0 -38 21.5 -70.5t56.5 -53t156.5 -74.5t162.5 -81q65 -44 99 -98.5t34 -124.5q0 -119 -90 -204.5t-278 -85.5q-83 0 -165 16t-163 47v277h133v-79q0 -81 37 -112q54 -46 161 -46
q100 0 151 46t51 117q0 56 -36 95q-36 38 -178 102.5t-181 90.5q-59 39 -91.5 90t-32.5 120q0 111 87 188t248 77q84 0 158 -15.5t139 -46.5z" />
    <glyph glyph-name="t" unicode="t" horiz-adv-x="640" 
d="M230 1235h97v-265h257v-119h-257v-586q0 -91 28.5 -126t73.5 -35q32 0 60 9q19 6 113 50v-117q-130 -70 -224 -70q-108 0 -162.5 57t-54.5 193v625h-122v86q84 29 129.5 96.5t61.5 201.5z" />
    <glyph glyph-name="u" unicode="u" horiz-adv-x="1088" 
d="M16 963l306 22v-620q0 -125 31 -173q47 -74 151 -74q67 0 120 24.5t84.5 66.5t43.5 95q16 74 16 122v362q0 54 -13 68.5t-51 14.5q-28 0 -77 -1v93l300 22v-773q0 -63 12 -78.5t42 -15.5q15 0 56 2h27v-90l-277 -30q-18 75 -19 149q-49 -88 -127.5 -130.5t-177.5 -42.5
q-161 0 -245 105q-64 78 -64 246v461q0 55 -13 69t-53 14q-20 0 -72 -1v93z" />
    <glyph glyph-name="v" unicode="v" horiz-adv-x="1045" 
d="M7 877v93h420v-93q-73 0 -85 -5q-24 -8 -24 -30q0 -17 13 -48l223 -575l216 568q9 24 9 48q0 25 -22 35q-11 5 -82 7v93h364v-93q-53 0 -70 -7.5t-30 -27t-45 -101.5l-303 -760h-117l-316 783q-29 70 -58 92q-21 16 -93 21z" />
    <glyph glyph-name="w" unicode="w" horiz-adv-x="1515" 
d="M5 970h416v-93h-36q-44 0 -57.5 -11t-13.5 -31q0 -14 19 -76l166 -537l217 748h131l231 -748l158 544q14 47 14 62q0 24 -15 36.5t-56 12.5h-34v93h365v-93h-24q-45 0 -68.5 -20t-48.5 -98l-251 -778h-123l-234 741l-220 -741h-120l-252 741q-35 103 -64 129t-80 26h-20
v93z" />
    <glyph glyph-name="x" unicode="x" horiz-adv-x="1045" 
d="M53 970h412v-93h-42q-29 0 -39 -7.5t-10 -19.5q0 -18 39 -72l125 -177l149 187q37 46 37 62q0 12 -10 19q-14 8 -73 8v93h358v-93q-53 0 -87.5 -18t-86.5 -81l-220 -271l209 -286q61 -83 99 -105.5t100 -22.5v-93h-408v93h36q32 0 44 8q8 6 8 18q0 13 -38 66l-147 202
l-169 -210q-27 -34 -29 -39q-6 -11 -6 -19q0 -14 10 -20t72 -6v-93h-353v93q58 3 92 21t85 82l230 286l-197 275q-55 76 -90.5 97t-99.5 23v93z" />
    <glyph glyph-name="y" unicode="y" horiz-adv-x="1045" 
d="M7 970h419v-93h-49q-33 0 -48 -12q-12 -9 -12 -26t15 -53q2 -5 8 -21l212 -559l197 531q26 70 26 99q0 19 -14 30t-51 11h-38v93h367v-93h-25q-41 0 -62 -16.5t-49 -88.5l-360 -921q-74 -191 -144 -248t-177 -57q-87 0 -167 37v192h115v-33q0 -46 18.5 -66t50.5 -20
q62 0 104 67q73 119 116 277l-289 737q-38 96 -64 118t-74 22h-25v93z" />
    <glyph glyph-name="z" unicode="z" horiz-adv-x="896" 
d="M69 699v271h759v-114l-584 -742h385q61 0 74.5 12.5t13.5 60.5v102h131v-289h-800v114l587 742h-360q-53 0 -65 -12t-12 -60v-85h-129z" />
    <glyph glyph-name="braceleft" unicode="{" 
d="M71 565q73 2 119.5 40t62 103.5t16 226t6.5 212.5q9 82 33.5 130.5t60 76.5t90.5 42q32 8 111 8h53v-149h-29q-99 0 -131.5 -36t-32.5 -161v-141q0 -204 -45 -291t-155 -139q105 -44 152.5 -134t47.5 -295v-142q0 -124 32.5 -160t131.5 -36h29v-149h-53q-94 0 -136 15
q-61 21 -101 70.5t-52 125t-12.5 247.5t-16 237t-62 103.5t-119.5 40.5v155z" />
    <glyph glyph-name="bar" unicode="|" horiz-adv-x="1109" 
d="M475 1442h159v-1896h-159v1896z" />
    <glyph glyph-name="braceright" unicode="}" 
d="M612 410q-73 -2 -119 -40t-61.5 -103.5t-16.5 -226t-7 -212.5q-8 -82 -33 -131t-60.5 -76.5t-90.5 -41.5q-32 -8 -111 -8h-53v149h30q98 0 131 36t33 160l-1 142q0 204 45 290.5t155 138.5q-105 45 -152.5 135t-47.5 295l1 141q0 125 -32.5 161t-131.5 36h-30v149h53
q94 0 137 -15q60 -22 100 -71t52 -124.5t12.5 -247.5t16 -237.5t62 -103.5t119.5 -40v-155z" />
    <glyph glyph-name="asciitilde" unicode="~" horiz-adv-x="1344" 
d="M1217 692q-155 -131 -291 -131q-57 0 -113 16t-190.5 80.5t-200.5 64.5q-134 0 -296 -140v168q156 129 304 129q49 0 105 -16t188.5 -80t201.5 -64q63 0 132 31.5t160 110.5v-169z" />
    <glyph glyph-name="Adieresis" unicode="&#xc4;" horiz-adv-x="1387" 
d="M611 1423h166l420 -1189q31 -90 62 -117q18 -16 70 -16h39v-101h-460v101h53q54 0 67.5 11t13.5 36q0 24 -22 86l-75 217h-539l-80 -225q-19 -52 -19 -74q0 -24 19 -40q13 -11 65 -11h57v-101h-429v101h37q49 0 75.5 21.5t50.5 89.5zM448 574h452l-226 637zM500 1693
q38 0 64.5 -26.5t26.5 -64.5q0 -37 -26.5 -63.5t-64.5 -26.5q-37 0 -63.5 26.5t-26.5 63.5q0 38 26.5 64.5t63.5 26.5zM886 1693q38 0 64.5 -26.5t26.5 -64.5q0 -37 -26.5 -63.5t-64.5 -26.5q-37 0 -63.5 26.5t-26.5 63.5q0 38 26.5 64.5t63.5 26.5z" />
    <glyph glyph-name="Aring" unicode="&#xc5;" horiz-adv-x="1387" 
d="M611 1423h166l420 -1189q31 -90 62 -117q18 -16 70 -16h39v-101h-460v101h53q54 0 67.5 11t13.5 36q0 24 -22 86l-75 217h-539l-80 -225q-19 -52 -19 -74q0 -24 19 -40q13 -11 65 -11h57v-101h-429v101h37q49 0 75.5 21.5t50.5 89.5zM448 574h452l-226 637zM693 1881
q77 0 131 -54t54 -131q0 -76 -54 -130t-131 -54q-76 0 -130 54t-54 130q0 77 54 131t130 54zM693 1807q-46 0 -78.5 -32.5t-32.5 -78.5t32.5 -78.5t78.5 -32.5t78.5 32.5t32.5 78.5t-32.5 78.5t-78.5 32.5z" />
    <glyph glyph-name="Ccedilla" unicode="&#xc7;" horiz-adv-x="1365" 
d="M1259 1326v-317h-147q-1 153 -19.5 192t-91.5 71q-95 41 -214 41q-214 0 -353.5 -157t-139.5 -448q0 -279 143 -437.5t347 -158.5q122 0 251 47t224 132v-171q-94 -76 -226.5 -117t-268.5 -41q-191 0 -343 91.5t-233.5 261.5t-81.5 377q0 287 147 487q192 263 542 263
q126 0 248 -30t216 -86zM645 21h111l-32 -102q70 0 115.5 -43.5t45.5 -105.5q0 -71 -57.5 -120.5t-174.5 -49.5q-86 0 -177 27v95q85 -24 160 -24q62 0 93 24q23 18 23 48t-23 49q-29 24 -83 24q-14 0 -51 -3z" />
    <glyph glyph-name="Eacute" unicode="&#xc9;" horiz-adv-x="1237" 
d="M99 1404h1027v-314h-130v102q0 42 -9 57t-33 23q-11 3 -84 5h-457v-492h359q62 0 80 17t18 72v47h115v-402h-115v63q0 47 -20.5 63t-86.5 16h-350v-537h517q56 0 73 18.5t17 81.5v87h131v-311h-1052v101h50q53 0 70 17.5t17 80.5v1016q0 54 -17 71t-70 17h-50v101z
M624 1512h-114l133 263h200z" />
    <glyph glyph-name="Ntilde" unicode="&#xd1;" horiz-adv-x="1472" 
d="M91 1404h403l639 -1138v963q0 41 -19.5 57.5t-83.5 16.5h-35v101h417v-101h-44q-61 0 -77.5 -17.5t-16.5 -86.5v-1218h-182l-723 1287v-1062q0 -66 13 -82q19 -23 84 -23h40v-101h-415v101h51q55 0 71 18t16 95v998q0 57 -16 74t-51 17h-71v101zM1036 1704h111
q-1 -86 -50.5 -139.5t-119.5 -53.5q-33 0 -68.5 10t-101 40t-89.5 30q-25 0 -44 -18t-26 -61h-112q7 95 57.5 144t129.5 49q60 0 127 -35.5t78 -38.5q19 -7 38 -7q27 0 45 18t25 62z" />
    <glyph glyph-name="Odieresis" unicode="&#xd6;" horiz-adv-x="1557" 
d="M104 686q0 351 191 553.5t487 202.5q300 0 485.5 -196.5t185.5 -537.5q0 -339 -194 -542t-489 -203q-290 0 -478 195.5t-188 527.5zM295 701q0 -305 134.5 -454.5t351.5 -149.5q209 0 344 155.5t135 469.5q0 289 -133 437t-347 148q-215 0 -350 -151t-135 -455zM585 1693
q38 0 64.5 -26.5t26.5 -64.5q0 -37 -26.5 -63.5t-64.5 -26.5q-37 0 -63.5 26.5t-26.5 63.5q0 38 26.5 64.5t63.5 26.5zM971 1693q38 0 64.5 -26.5t26.5 -64.5q0 -37 -26.5 -63.5t-64.5 -26.5q-37 0 -63.5 26.5t-26.5 63.5q0 38 26.5 64.5t63.5 26.5z" />
    <glyph glyph-name="Udieresis" unicode="&#xdc;" horiz-adv-x="1472" 
d="M60 1404h459v-101h-49q-63 0 -80 -26q-10 -15 -10 -89v-683q0 -205 87 -307t283 -102q187 0 279 93.5t92 294.5v738q0 48 -17.5 64.5t-74.5 16.5h-46v101h428v-101h-51q-51 0 -68.5 -16t-17.5 -54v-739q0 -264 -134 -397q-135 -134 -395 -134q-183 0 -302 57
t-181.5 166.5t-62.5 297.5v718q0 65 -18.5 83t-82.5 18h-38v101zM543 1693q38 0 64.5 -26.5t26.5 -64.5q0 -37 -26.5 -63.5t-64.5 -26.5q-37 0 -63.5 26.5t-26.5 63.5q0 38 26.5 64.5t63.5 26.5zM929 1693q38 0 64.5 -26.5t26.5 -64.5q0 -37 -26.5 -63.5t-64.5 -26.5
q-37 0 -63.5 26.5t-26.5 63.5q0 38 26.5 64.5t63.5 26.5z" />
    <glyph glyph-name="aacute" unicode="&#xe1;" horiz-adv-x="1003" 
d="M161 689v204q78 53 163.5 79.5t179.5 26.5q125 0 203.5 -44.5t105.5 -106t27 -214.5v-403q0 -88 16 -113q11 -17 35 -17q36 0 88 28v-101q-67 -32 -102.5 -42t-68.5 -10q-53 0 -85.5 34t-41.5 119q-68 -82 -135.5 -117.5t-161.5 -35.5q-137 0 -220 70t-83 206
q0 98 53 172t165 117.5t382 107.5q-2 143 -49 194.5t-144 51.5q-104 0 -159 -48q-39 -34 -39 -116v-42h-129zM681 543q-213 -58 -275 -82q-83 -31 -121 -79t-38 -111q0 -75 47 -121.5t123 -46.5q120 0 192 73t72 223v144zM507 1110h-114l133 263h200z" />
    <glyph glyph-name="agrave" unicode="&#xe0;" horiz-adv-x="1003" 
d="M161 689v204q78 53 163.5 79.5t179.5 26.5q125 0 203.5 -44.5t105.5 -106t27 -214.5v-403q0 -88 16 -113q11 -17 35 -17q36 0 88 28v-101q-67 -32 -102.5 -42t-68.5 -10q-53 0 -85.5 34t-41.5 119q-68 -82 -135.5 -117.5t-161.5 -35.5q-137 0 -220 70t-83 206
q0 98 53 172t165 117.5t382 107.5q-2 143 -49 194.5t-144 51.5q-104 0 -159 -48q-39 -34 -39 -116v-42h-129zM681 543q-213 -58 -275 -82q-83 -31 -121 -79t-38 -111q0 -75 47 -121.5t123 -46.5q120 0 192 73t72 223v144zM495 1110l-218 263h200l133 -263h-115z" />
    <glyph glyph-name="acircumflex" unicode="&#xe2;" horiz-adv-x="1003" 
d="M69 689v204q78 53 163.5 79.5t179.5 26.5q125 0 203.5 -44.5t105.5 -106t27 -214.5v-403q0 -88 16 -113q11 -17 35 -17q36 0 88 28v-101q-67 -32 -102.5 -42t-68.5 -10q-53 0 -85.5 34t-41.5 119q-68 -82 -135.5 -117.5t-161.5 -35.5q-137 0 -220 70t-83 206q0 98 53 172
t165 117.5t382 107.5q-2 143 -49 194.5t-144 51.5q-104 0 -159 -48q-39 -34 -39 -116v-42h-129zM589 543q-213 -58 -275 -82q-83 -31 -121 -79t-38 -111q0 -75 47 -121.5t123 -46.5q120 0 192 73t72 223v144zM269 1110h-138l196 263h166l194 -263h-143l-138 181z" />
    <glyph glyph-name="adieresis" unicode="&#xe4;" horiz-adv-x="1003" 
d="M161 689v204q78 53 163.5 79.5t179.5 26.5q125 0 203.5 -44.5t105.5 -106t27 -214.5v-403q0 -88 16 -113q11 -17 35 -17q36 0 88 28v-101q-67 -32 -102.5 -42t-68.5 -10q-53 0 -85.5 34t-41.5 119q-68 -82 -135.5 -117.5t-161.5 -35.5q-137 0 -220 70t-83 206
q0 98 53 172t165 117.5t382 107.5q-2 143 -49 194.5t-144 51.5q-104 0 -159 -48q-39 -34 -39 -116v-42h-129zM681 543q-213 -58 -275 -82q-83 -31 -121 -79t-38 -111q0 -75 47 -121.5t123 -46.5q120 0 192 73t72 223v144zM308 1291q38 0 64.5 -26.5t26.5 -64.5
q0 -37 -26.5 -63.5t-64.5 -26.5q-37 0 -63.5 26.5t-26.5 63.5q0 38 26.5 64.5t63.5 26.5zM694 1291q38 0 64.5 -26.5t26.5 -64.5q0 -37 -26.5 -63.5t-64.5 -26.5q-37 0 -63.5 26.5t-26.5 63.5q0 38 26.5 64.5t63.5 26.5z" />
    <glyph glyph-name="atilde" unicode="&#xe3;" horiz-adv-x="1003" 
d="M69 689v204q78 53 163.5 79.5t179.5 26.5q125 0 203.5 -44.5t105.5 -106t27 -214.5v-403q0 -88 16 -113q11 -17 35 -17q36 0 88 28v-101q-67 -32 -102.5 -42t-68.5 -10q-53 0 -85.5 34t-41.5 119q-68 -82 -135.5 -117.5t-161.5 -35.5q-137 0 -220 70t-83 206q0 98 53 172
t165 117.5t382 107.5q-2 143 -49 194.5t-144 51.5q-104 0 -159 -48q-39 -34 -39 -116v-42h-129zM589 543q-213 -58 -275 -82q-83 -31 -121 -79t-38 -111q0 -75 47 -121.5t123 -46.5q120 0 192 73t72 223v144zM604 1302h111q-1 -86 -50.5 -139.5t-119.5 -53.5q-33 0 -68.5 10
t-101 40t-89.5 30q-25 0 -44 -18t-26 -61h-112q7 95 57.5 144t129.5 49q60 0 127 -35.5t78 -38.5q19 -7 38 -7q27 0 45 18t25 62z" />
    <glyph glyph-name="aring" unicode="&#xe5;" horiz-adv-x="1003" 
d="M161 689v204q78 53 163.5 79.5t179.5 26.5q125 0 203.5 -44.5t105.5 -106t27 -214.5v-403q0 -88 16 -113q11 -17 35 -17q36 0 88 28v-101q-67 -32 -102.5 -42t-68.5 -10q-53 0 -85.5 34t-41.5 119q-68 -82 -135.5 -117.5t-161.5 -35.5q-137 0 -220 70t-83 206
q0 98 53 172t165 117.5t382 107.5q-2 143 -49 194.5t-144 51.5q-104 0 -159 -48q-39 -34 -39 -116v-42h-129zM681 543q-213 -58 -275 -82q-83 -31 -121 -79t-38 -111q0 -75 47 -121.5t123 -46.5q120 0 192 73t72 223v144zM501 1479q77 0 131 -54t54 -131q0 -76 -54 -130
t-131 -54q-76 0 -130 54t-54 130q0 77 54 131t130 54zM501 1405q-46 0 -78.5 -32.5t-32.5 -78.5t32.5 -78.5t78.5 -32.5t78.5 32.5t32.5 78.5t-32.5 78.5t-78.5 32.5z" />
    <glyph glyph-name="ccedilla" unicode="&#xe7;" horiz-adv-x="981" 
d="M885 912v-285h-137v88q0 89 -35 121q-49 45 -148 45q-128 0 -213 -99t-85 -291q0 -188 84 -283.5t208 -95.5q156 0 326 137v-150q-159 -129 -354 -129q-193 0 -314 132t-121 368q0 243 135 383.5t343 140.5q81 0 158.5 -20.5t152.5 -61.5zM454 21h111l-32 -102
q70 0 115.5 -43.5t45.5 -105.5q0 -71 -57.5 -120.5t-174.5 -49.5q-86 0 -177 27v95q85 -24 160 -24q62 0 93 24q23 18 23 48t-23 49q-29 24 -83 24q-14 0 -51 -3z" />
    <glyph glyph-name="eacute" unicode="&#xe9;" horiz-adv-x="1003" 
d="M929 501h-668q0 -200 85.5 -296.5t219.5 -96.5q167 0 342 155v-149q-162 -144 -372 -144q-199 0 -324 133t-125 366q0 155 57.5 280t163 187.5t228.5 62.5q117 0 211.5 -55.5t137.5 -160t44 -282.5zM761 613q-8 140 -72.5 208t-161.5 68q-95 0 -165 -68t-91 -208h490z
M507 1110h-114l133 263h200z" />
    <glyph glyph-name="egrave" unicode="&#xe8;" horiz-adv-x="1003" 
d="M929 501h-668q0 -200 85.5 -296.5t219.5 -96.5q167 0 342 155v-149q-162 -144 -372 -144q-199 0 -324 133t-125 366q0 155 57.5 280t163 187.5t228.5 62.5q117 0 211.5 -55.5t137.5 -160t44 -282.5zM761 613q-8 140 -72.5 208t-161.5 68q-95 0 -165 -68t-91 -208h490z
M495 1110l-218 263h200l133 -263h-115z" />
    <glyph glyph-name="ecircumflex" unicode="&#xea;" horiz-adv-x="1003" 
d="M831 501h-668q0 -200 85.5 -296.5t219.5 -96.5q167 0 342 155v-149q-162 -144 -372 -144q-199 0 -324 133t-125 366q0 155 57.5 280t163 187.5t228.5 62.5q117 0 211.5 -55.5t137.5 -160t44 -282.5zM663 613q-8 140 -72.5 208t-161.5 68q-95 0 -165 -68t-91 -208h490z
M263 1110h-138l196 263h166l194 -263h-143l-138 181z" />
    <glyph glyph-name="edieresis" unicode="&#xeb;" horiz-adv-x="1003" 
d="M929 501h-668q0 -200 85.5 -296.5t219.5 -96.5q167 0 342 155v-149q-162 -144 -372 -144q-199 0 -324 133t-125 366q0 155 57.5 280t163 187.5t228.5 62.5q117 0 211.5 -55.5t137.5 -160t44 -282.5zM761 613q-8 140 -72.5 208t-161.5 68q-95 0 -165 -68t-91 -208h490z
M308 1291q38 0 64.5 -26.5t26.5 -64.5q0 -37 -26.5 -63.5t-64.5 -26.5q-37 0 -63.5 26.5t-26.5 63.5q0 38 26.5 64.5t63.5 26.5zM694 1291q38 0 64.5 -26.5t26.5 -64.5q0 -37 -26.5 -63.5t-64.5 -26.5q-37 0 -63.5 26.5t-26.5 63.5q0 38 26.5 64.5t63.5 26.5z" />
    <glyph glyph-name="iacute" unicode="&#xed;" horiz-adv-x="512" 
d="M38 955l300 28v-798q0 -66 11 -79t56 -13h47v-93h-396v93h47q48 0 60 14q16 18 16 86v562q0 76 -15 92t-75 16h-51v92zM261 1110h-114l133 263h200z" />
    <glyph glyph-name="igrave" unicode="&#xec;" horiz-adv-x="512" 
d="M39 955l300 28v-798q0 -66 11 -79t56 -13h47v-93h-396v93h47q48 0 60 14q16 18 16 86v562q0 76 -15 92t-75 16h-51v92zM250 1110l-218 263h200l133 -263h-115z" />
    <glyph glyph-name="icircumflex" unicode="&#xee;" horiz-adv-x="512" 
d="M-181 955l300 28v-798q0 -66 11 -79t56 -13h47v-93h-396v93h47q48 0 60 14q16 18 16 86v562q0 76 -15 92t-75 16h-51v92zM-118 1110h-138l196 263h166l194 -263h-143l-138 181z" />
    <glyph glyph-name="idieresis" unicode="&#xef;" horiz-adv-x="512" 
d="M53 955l300 28v-798q0 -66 11 -79t56 -13h47v-93h-396v93h47q48 0 60 14q16 18 16 86v562q0 76 -15 92t-75 16h-51v92zM63 1291q38 0 64.5 -26.5t26.5 -64.5q0 -37 -26.5 -63.5t-64.5 -26.5q-37 0 -63.5 26.5t-26.5 63.5q0 38 26.5 64.5t63.5 26.5zM449 1291
q38 0 64.5 -26.5t26.5 -64.5q0 -37 -26.5 -63.5t-64.5 -26.5q-37 0 -63.5 26.5t-26.5 63.5q0 38 26.5 64.5t63.5 26.5z" />
    <glyph glyph-name="ntilde" unicode="&#xf1;" horiz-adv-x="1109" 
d="M39 947l277 26q10 -35 15 -91l5 -52q53 82 129 123t175 41q165 0 250 -107q60 -76 60 -255v-487q0 -31 11 -40q15 -12 64 -12h38v-93h-396v93h32q60 0 74 19q9 11 9 89v417q0 136 -49 189.5t-141 53.5q-116 0 -186 -78.5t-70 -251.5v-347q0 -64 12.5 -77.5t63.5 -13.5h41
v-93h-394v93h39q49 0 63 16t14 82v566q0 70 -11 85t-45 15q-10 0 -80 -3v93zM786 1302h111q-1 -86 -50.5 -139.5t-119.5 -53.5q-33 0 -68.5 10t-101 40t-89.5 30q-25 0 -44 -18t-26 -61h-112q7 95 57.5 144t129.5 49q60 0 127 -35.5t78 -38.5q19 -7 38 -7q27 0 45 18t25 62z
" />
    <glyph glyph-name="oacute" unicode="&#xf3;" horiz-adv-x="1109" 
d="M1023 497q0 -59 -15 -138.5t-53 -150.5t-98.5 -127t-137.5 -83.5t-179 -27.5q-208 0 -331 131t-123 367q0 245 134.5 388t348.5 143q205 0 329.5 -131t124.5 -371zM852 488q0 199 -84 295.5t-211 96.5q-128 0 -214.5 -101.5t-86.5 -302.5q0 -175 81 -281.5t221 -106.5
q126 0 210 99.5t84 300.5zM560 1110h-114l133 263h200z" />
    <glyph glyph-name="ograve" unicode="&#xf2;" horiz-adv-x="1109" 
d="M1023 497q0 -59 -15 -138.5t-53 -150.5t-98.5 -127t-137.5 -83.5t-179 -27.5q-208 0 -331 131t-123 367q0 245 134.5 388t348.5 143q205 0 329.5 -131t124.5 -371zM852 488q0 199 -84 295.5t-211 96.5q-128 0 -214.5 -101.5t-86.5 -302.5q0 -175 81 -281.5t221 -106.5
q126 0 210 99.5t84 300.5zM548 1110l-218 263h200l133 -263h-115z" />
    <glyph glyph-name="ocircumflex" unicode="&#xf4;" horiz-adv-x="1109" 
d="M979 497q0 -59 -15 -138.5t-53 -150.5t-98.5 -127t-137.5 -83.5t-179 -27.5q-208 0 -331 131t-123 367q0 245 134.5 388t348.5 143q205 0 329.5 -131t124.5 -371zM808 488q0 199 -84 295.5t-211 96.5q-128 0 -214.5 -101.5t-86.5 -302.5q0 -175 81 -281.5t221 -106.5
q126 0 210 99.5t84 300.5zM371 1110h-138l196 263h166l194 -263h-143l-138 181z" />
    <glyph glyph-name="odieresis" unicode="&#xf6;" horiz-adv-x="1109" 
d="M1023 497q0 -59 -15 -138.5t-53 -150.5t-98.5 -127t-137.5 -83.5t-179 -27.5q-208 0 -331 131t-123 367q0 245 134.5 388t348.5 143q205 0 329.5 -131t124.5 -371zM852 488q0 199 -84 295.5t-211 96.5q-128 0 -214.5 -101.5t-86.5 -302.5q0 -175 81 -281.5t221 -106.5
q126 0 210 99.5t84 300.5zM361 1291q38 0 64.5 -26.5t26.5 -64.5q0 -37 -26.5 -63.5t-64.5 -26.5q-37 0 -63.5 26.5t-26.5 63.5q0 38 26.5 64.5t63.5 26.5zM747 1291q38 0 64.5 -26.5t26.5 -64.5q0 -37 -26.5 -63.5t-64.5 -26.5q-37 0 -63.5 26.5t-26.5 63.5q0 38 26.5 64.5
t63.5 26.5z" />
    <glyph glyph-name="otilde" unicode="&#xf5;" horiz-adv-x="1109" 
d="M979 497q0 -59 -15 -138.5t-53 -150.5t-98.5 -127t-137.5 -83.5t-179 -27.5q-208 0 -331 131t-123 367q0 245 134.5 388t348.5 143q205 0 329.5 -131t124.5 -371zM808 488q0 199 -84 295.5t-211 96.5q-128 0 -214.5 -101.5t-86.5 -302.5q0 -175 81 -281.5t221 -106.5
q126 0 210 99.5t84 300.5zM706 1302h111q-1 -86 -50.5 -139.5t-119.5 -53.5q-33 0 -68.5 10t-101 40t-89.5 30q-25 0 -44 -18t-26 -61h-112q7 95 57.5 144t129.5 49q60 0 127 -35.5t78 -38.5q19 -7 38 -7q27 0 45 18t25 62z" />
    <glyph glyph-name="uacute" unicode="&#xfa;" horiz-adv-x="1088" 
d="M16 963l306 22v-620q0 -125 31 -173q47 -74 151 -74q67 0 120 24.5t84.5 66.5t43.5 95q16 74 16 122v362q0 54 -13 68.5t-51 14.5q-28 0 -77 -1v93l300 22v-773q0 -63 12 -78.5t42 -15.5q15 0 56 2h27v-90l-277 -30q-18 75 -19 149q-49 -88 -127.5 -130.5t-177.5 -42.5
q-161 0 -245 105q-64 78 -64 246v461q0 55 -13 69t-53 14q-20 0 -72 -1v93zM597 1110h-114l133 263h200z" />
    <glyph glyph-name="ugrave" unicode="&#xf9;" horiz-adv-x="1088" 
d="M16 963l306 22v-620q0 -125 31 -173q47 -74 151 -74q67 0 120 24.5t84.5 66.5t43.5 95q16 74 16 122v362q0 54 -13 68.5t-51 14.5q-28 0 -77 -1v93l300 22v-773q0 -63 12 -78.5t42 -15.5q15 0 56 2h27v-90l-277 -30q-18 75 -19 149q-49 -88 -127.5 -130.5t-177.5 -42.5
q-161 0 -245 105q-64 78 -64 246v461q0 55 -13 69t-53 14q-20 0 -72 -1v93zM538 1110l-218 263h200l133 -263h-115z" />
    <glyph glyph-name="ucircumflex" unicode="&#xfb;" horiz-adv-x="1088" 
d="M16 963l306 22v-620q0 -125 31 -173q47 -74 151 -74q67 0 120 24.5t84.5 66.5t43.5 95q16 74 16 122v362q0 54 -13 68.5t-51 14.5q-28 0 -77 -1v93l300 22v-773q0 -63 12 -78.5t42 -15.5q15 0 56 2h27v-90l-277 -30q-18 75 -19 149q-49 -88 -127.5 -130.5t-177.5 -42.5
q-161 0 -245 105q-64 78 -64 246v461q0 55 -13 69t-53 14q-20 0 -72 -1v93zM381 1110h-138l196 263h166l194 -263h-143l-138 181z" />
    <glyph glyph-name="udieresis" unicode="&#xfc;" horiz-adv-x="1088" 
d="M16 963l306 22v-620q0 -125 31 -173q47 -74 151 -74q67 0 120 24.5t84.5 66.5t43.5 95q16 74 16 122v362q0 54 -13 68.5t-51 14.5q-28 0 -77 -1v93l300 22v-773q0 -63 12 -78.5t42 -15.5q15 0 56 2h27v-90l-277 -30q-18 75 -19 149q-49 -88 -127.5 -130.5t-177.5 -42.5
q-161 0 -245 105q-64 78 -64 246v461q0 55 -13 69t-53 14q-20 0 -72 -1v93zM328 1291q38 0 64.5 -26.5t26.5 -64.5q0 -37 -26.5 -63.5t-64.5 -26.5q-37 0 -63.5 26.5t-26.5 63.5q0 38 26.5 64.5t63.5 26.5zM714 1291q38 0 64.5 -26.5t26.5 -64.5q0 -37 -26.5 -63.5
t-64.5 -26.5q-37 0 -63.5 26.5t-26.5 63.5q0 38 26.5 64.5t63.5 26.5z" />
    <glyph glyph-name="dagger" unicode="&#x2020;" horiz-adv-x="981" 
d="M65 928h103l252 -3l-11 414v103h166v-103l-15 -414l253 3h103v-150l-103 1l-253 4l15 -1134v-103h-166l11 1237l-252 -5h-103v150z" />
    <glyph glyph-name="degree" unicode="&#xb0;" horiz-adv-x="811" 
d="M128 1214q0 115 81.5 196t195.5 81q116 0 197 -81t81 -196t-81.5 -196.5t-196.5 -81.5q-114 0 -195.5 81t-81.5 197zM237 1214q0 -70 49.5 -119.5t119.5 -49.5q69 0 118.5 49.5t49.5 119.5t-49.5 119.5t-118.5 49.5q-70 0 -119.5 -49.5t-49.5 -119.5z" />
    <glyph glyph-name="cent" unicode="&#xa2;" horiz-adv-x="981" 
d="M589 1182q160 -5 300 -81v-286h-137v88q0 86 -34.5 121.5t-128.5 44.5v-768q51 1 131 33t169 103v-150q-135 -110 -300 -126v-236h-119v237q-142 21 -228 106q-142 141 -142 390q0 229 120 367q93 108 250 146v247h119v-236zM470 318v735q-83 -28 -141 -122.5t-58 -251.5
q0 -151 53 -238t146 -123z" />
    <glyph glyph-name="sterling" unicode="&#xa3;" horiz-adv-x="1003" 
d="M913 1304v-268h-123q-2 105 -18 142.5t-64 63t-115 25.5q-99 0 -160.5 -60.5t-61.5 -151.5q0 -51 12 -108t63 -211h361v-124h-329q18 -71 18 -137q0 -89 -35.5 -162t-125.5 -157q72 23 120 23q51 0 141 -28q124 -38 181 -38q74 0 168 59v-134q-97 -63 -185 -63
q-64 0 -192 37t-189 37q-45 0 -102.5 -13.5t-198.5 -63.5v133q92 51 142 96.5t84 118t34 165.5q0 61 -18 127h-168v124h132q-71 165 -71 295q0 146 106.5 246t285.5 100q163 0 308 -73z" />
    <glyph glyph-name="section" unicode="&#xa7;" horiz-adv-x="960" 
d="M779 1377v-254h-124v46q0 91 -38 130.5t-112 39.5q-76 0 -119 -39.5t-43 -98.5q0 -65 36 -119.5t177 -173.5q208 -174 268.5 -268t60.5 -188q0 -104 -70 -199.5t-210 -156.5q104 -98 137.5 -159.5t33.5 -130.5q0 -108 -85 -184t-239 -76q-73 0 -141.5 13.5t-132.5 40.5
v254h126v-67q0 -75 22 -100q44 -53 130 -53q77 0 119.5 40t42.5 103q0 45 -17.5 82t-59.5 81q-25 27 -164.5 150t-190 177.5t-80.5 121.5t-30 138q0 109 73 203t213 145q-111 109 -142.5 168.5t-31.5 126.5q0 111 86 188t237 77q61 0 128 -14.5t140 -43.5zM439 801
q-105 -45 -154 -114t-49 -141q0 -50 27.5 -106t83.5 -114q38 -39 175 -156q202 100 202 261q0 52 -25 104.5t-84 112.5q-32 33 -176 153z" />
    <glyph glyph-name="bullet" unicode="&#x2022;" horiz-adv-x="726" 
d="M363 928q104 0 177.5 -73.5t73.5 -177.5t-73.5 -177.5t-177.5 -73.5t-177.5 73.5t-73.5 177.5t73 177.5t178 73.5z" />
    <glyph glyph-name="paragraph" unicode="&#xb6;" horiz-adv-x="1216" 
d="M459 -407v1045q-187 10 -295.5 121.5t-108.5 284.5q0 193 120.5 307.5t352.5 114.5h633v-163h-144v-1710h-170v1710h-223v-1710h-165z" />
    <glyph glyph-name="germandbls" unicode="&#xdf;" horiz-adv-x="1109" 
d="M320 0h-293v93h49q51 0 66.5 16.5t15.5 80.5v802q0 154 35 244t129 148t246 58q185 0 285.5 -95t100.5 -250q0 -226 -213 -315q135 -25 206.5 -113.5t71.5 -241.5q0 -208 -108 -325t-277 -117q-99 0 -190 41v195h109q0 -67 24 -92.5t71 -25.5q85 0 135 64q68 84 68 239
q0 116 -43.5 183.5t-108 92t-183.5 24.5v135q138 0 205.5 65t67.5 183q0 110 -62.5 173t-167.5 63q-78 0 -135.5 -38.5t-80.5 -105.5t-23 -196v-985z" />
    <glyph glyph-name="registered" unicode="&#xae;" horiz-adv-x="1621" 
d="M811 1491q190 0 371 -97.5t282 -279t101 -378.5q0 -195 -99.5 -375t-279 -279.5t-375.5 -99.5t-375.5 99.5t-279.5 279.5t-100 375q0 197 101.5 378.5t282.5 279t371 97.5zM811 1366q-159 0 -309.5 -81.5t-235.5 -233t-85 -315.5q0 -163 83.5 -312.5t233.5 -233
t313 -83.5t313 83.5t233 233t83 312.5q0 164 -84.5 315.5t-235.5 233t-309 81.5zM480 319v812h279q143 0 207 -22.5t102 -78.5t38 -119q0 -89 -63.5 -155t-168.5 -74q43 -18 69 -43q49 -48 120 -161l99 -159h-160l-72 128q-82 145 -126 181t-116 36h-77v-345h-131zM611 776
h159q114 0 155.5 34t41.5 90q0 66 -56 98q-39 23 -151 23h-149v-245z" />
    <glyph glyph-name="copyright" unicode="&#xa9;" horiz-adv-x="1621" 
d="M811 1491q190 0 371 -97.5t282 -279t101 -378.5q0 -195 -99.5 -375t-279 -279.5t-375.5 -99.5t-375.5 99.5t-279.5 279.5t-100 375q0 197 101.5 378.5t282.5 279t371 97.5zM811 1366q-159 0 -309.5 -81.5t-235.5 -233t-85 -315.5q0 -163 83.5 -312.5t233.5 -233
t313 -83.5t313 83.5t233 233t83 312.5q0 164 -84.5 315.5t-235.5 233t-309 81.5zM1053 614l123 -36q-30 -125 -127.5 -199.5t-236.5 -74.5q-176 0 -286 114t-110 316t109 314t295 112q133 0 221 -63.5t120 -172.5l-119 -29q-30 74 -88.5 113.5t-137.5 39.5
q-115 0 -189.5 -82t-74.5 -235t70.5 -231.5t182.5 -78.5q90 0 158 52t90 141z" />
    <glyph glyph-name="trademark" unicode="&#x2122;" horiz-adv-x="2048" 
d="M489 651v694h-264v121h666v-121h-266v-694h-136zM982 651v815h200l206 -651l199 651h196v-815h-124v684l-210 -684h-123l-219 694v-694h-125z" />
    <glyph glyph-name="acute" unicode="&#xb4;" 
d="M347 1110h-114l133 263h200z" />
    <glyph glyph-name="dieresis" unicode="&#xa8;" 
d="M148 1291q38 0 64.5 -26.5t26.5 -64.5q0 -37 -26.5 -63.5t-64.5 -26.5q-37 0 -63.5 26.5t-26.5 63.5q0 38 26.5 64.5t63.5 26.5zM534 1291q38 0 64.5 -26.5t26.5 -64.5q0 -37 -26.5 -63.5t-64.5 -26.5q-37 0 -63.5 26.5t-26.5 63.5q0 38 26.5 64.5t63.5 26.5z" />
    <glyph glyph-name="notequal" unicode="&#x2260;" horiz-adv-x="1365" 
d="M139 965h601l209 530h110l-203 -530h369v-131h-422l-131 -337h553v-131h-604l-209 -529h-113l209 529h-369v131h420l131 337h-551v131z" />
    <glyph glyph-name="AE" unicode="&#xc6;" horiz-adv-x="1941" 
d="M638 1404h1194v-316h-129v102q0 52 -19.5 69.5t-86.5 17.5h-477v-494h361q60 0 77.5 15t17.5 70v52h116v-403h-116v56q0 55 -17 70.5t-78 15.5h-361v-535h505q68 0 85.5 16.5t17.5 68.5v100h131v-309h-1054v101h49q61 0 79 17.5t18 72.5v259h-487l-135 -234
q-31 -55 -31 -74q0 -21 12.5 -31t57.5 -10h56v-101h-426v101h29q55 0 79.5 15.5t57.5 74.5l573 999q29 50 29 71q0 19 -14.5 30.5t-53.5 11.5h-60v101zM535 573h416v718z" />
    <glyph glyph-name="Oslash" unicode="&#xd8;" horiz-adv-x="1557" 
d="M1315 1186q73 -114 106 -223.5t33 -252.5q0 -340 -193.5 -543.5t-487.5 -203.5q-144 0 -267 49q-85 34 -172 107l-164 -179l-95 87l172 187q-142 195 -142 483q0 340 191.5 542.5t482.5 202.5q273 0 450 -158l163 178l96 -87zM366 343l755 824q-72 72 -138 100
q-91 40 -202 40q-216 0 -350 -151t-134 -448q0 -234 69 -365zM1196 1056l-754 -821q142 -138 341 -138q208 0 343 155.5t135 468.5q0 194 -65 335z" />
    <glyph glyph-name="infinity" unicode="&#x221e;" horiz-adv-x="1195" 
d="M556 812q116 145 185 188.5t148 43.5q105 0 196.5 -76t91.5 -245q0 -164 -81.5 -249.5t-206.5 -85.5q-79 0 -148.5 44t-184.5 188q-136 -171 -289 -171q-101 0 -173.5 76.5t-72.5 190.5q0 113 72.5 190t173.5 77q153 0 289 -171zM625 717q85 -132 156 -183
q47 -35 106 -35q76 0 127.5 56t51.5 158q0 106 -52.5 162t-130.5 56q-53 0 -104 -37t-154 -177zM487 716q-76 95 -124.5 126t-95.5 31q-58 0 -96.5 -41t-38.5 -113q0 -71 40 -113.5t97 -42.5q101 0 218 153z" />
    <glyph glyph-name="plusminus" unicode="&#xb1;" horiz-adv-x="1365" 
d="M134 916h468v470h158v-470h471v-157h-471v-469h-158v469h-468v157zM134 108h1097v-157h-1097v157z" />
    <glyph glyph-name="lessequal" unicode="&#x2264;" horiz-adv-x="1365" 
d="M140 928l1087 456v-142l-911 -374l911 -374v-142l-1088 457zM139 87h1088v-132h-1088v132z" />
    <glyph glyph-name="greaterequal" unicode="&#x2265;" horiz-adv-x="1365" 
d="M1225 928l2 -119l-1088 -457v142l910 374l-910 374v142zM1227 87v-132h-1088v132h1088z" />
    <glyph glyph-name="yen" unicode="&#xa5;" horiz-adv-x="1291" 
d="M727 443h420v-110h-420v-166q0 -40 18.5 -55t84.5 -15h39v-97h-452v97h47q61 0 80 22q14 15 14 75v139h-423v110h423v89l-64 106h-359v110h292l-241 398q-40 66 -68 85.5t-73 19.5h-31v98h450v-98h-39q-44 0 -57 -9t-13 -26q0 -14 33 -70l278 -467l283 448q40 64 40 87
q0 19 -13 28t-62 9h-56v98h419v-98q-68 0 -94 -15t-65 -78l-260 -410h289v-110h-358l-62 -98v-97z" />
    <glyph glyph-name="mu" unicode="&#xb5;" horiz-adv-x="1131" 
d="M994 1062v-1062h-161v126q-52 -80 -103 -110q-70 -41 -163 -41q-83 0 -147 33q-48 25 -106 99v-514h-178v1469h178v-450q0 -212 18 -291.5t80.5 -131t146.5 -51.5q85 0 151.5 49.5t86.5 125t20 296.5v453h177z" />
    <glyph glyph-name="partialdiff" unicode="&#x2202;" horiz-adv-x="1003" 
d="M422 1138l-135 60q70 157 168 225t192 68q76 0 137.5 -39.5t92.5 -90.5q47 -79 69.5 -187t22.5 -248q0 -288 -86.5 -512.5t-233.5 -331.5t-289 -107q-137 0 -222.5 91t-85.5 256q0 226 153 387q197 207 649 215q-4 168 -24 256t-68 135.5t-113 47.5q-62 0 -121 -49.5
t-106 -175.5zM850 796q-244 -14 -357.5 -68t-187 -176.5t-73.5 -248.5q0 -83 51 -137t119 -54q75 0 160 55q117 76 190.5 234.5t97.5 394.5z" />
    <glyph glyph-name="summation" unicode="&#x2211;" horiz-adv-x="1451" 
d="M1351 -204h-1313v36l669 831l-669 817v37h1278l27 -337h-40q-16 138 -77.5 197t-171.5 59h-740l562 -687l-629 -777h818q70 0 153 27q57 19 94.5 67.5t62.5 151.5l40 -7z" />
    <glyph glyph-name="product" unicode="&#x220f;" horiz-adv-x="1685" 
d="M162 1491h1362v-1922h-191v1748h-978v-1748h-193v1922z" />
    <glyph glyph-name="pi" unicode="&#x3c0;" horiz-adv-x="1280" 
d="M61 1063h1182v-158h-162v-905h-189v905h-484v-905h-188v905h-159v158z" />
    <glyph glyph-name="integral" unicode="&#x222b;" horiz-adv-x="555" 
d="M198 948l18 548q9 113 31.5 187t45.5 104.5t62.5 53t76.5 22.5q50 0 87.5 -33.5t37.5 -73.5q0 -47 -26.5 -75.5t-65.5 -28.5q-35 0 -76 36q-23 20 -40 20t-28.5 -14.5t-11.5 -49.5q0 -42 9 -145q37 -410 37 -665q0 -67 -14 -526q-5 -164 -20 -256q-20 -122 -52 -175
t-70.5 -75t-83.5 -22q-52 0 -85 34t-33 87q0 45 25.5 72t64.5 27q40 0 69 -32t49 -32q17 0 28 14t11 47q0 42 -9 120q-37 315 -37 831z" />
    <glyph glyph-name="ordfeminine" unicode="&#xaa;" horiz-adv-x="704" 
d="M123 1246v129q52 34 109.5 50.5t120.5 16.5q84 0 137.5 -28t72 -65.5t18.5 -128.5v-250q1 -12 1 -19q0 -25 5 -32t16 -7q20 0 67 24v-76q-78 -35 -120 -35q-38 0 -60.5 18.5t-31.5 55.5q-37 -37 -83 -55.5t-101 -18.5q-98 0 -150.5 47t-52.5 122q0 78 60 131t324 108
q-1 78 -28.5 107t-86.5 29q-63 0 -93 -31q-18 -17 -18 -92h-106zM455 1156q-162 -39 -201 -63q-53 -33 -53 -87q0 -42 26.5 -67.5t70.5 -25.5q73 0 121 47q36 35 36 121v75z" />
    <glyph glyph-name="ordmasculine" unicode="&#xba;" horiz-adv-x="768" 
d="M696 1139q0 -141 -88 -229t-233 -88q-143 0 -223 80.5t-80 219.5q0 143 87.5 231.5t233.5 88.5q140 0 221.5 -81t81.5 -222zM562 1134q0 113 -49.5 168.5t-127.5 55.5q-77 0 -128.5 -58.5t-51.5 -172.5q0 -107 51 -165t130 -58q77 0 126.5 58t49.5 172z" />
    <glyph glyph-name="Omega" unicode="&#x2126;" horiz-adv-x="1621" 
d="M520 160q-108 67 -165 130q-87 96 -134 225.5t-47 286.5q0 196 79.5 360.5t231 252.5t347.5 88q336 0 516 -254q131 -186 131 -448q0 -168 -54 -297.5t-141 -222.5q-53 -58 -149 -121l364 6v-166h-575v177q94 47 150 102q87 85 142 213.5t55 284.5q0 138 -49.5 277.5
t-150 212.5t-243.5 73q-191 0 -316.5 -144.5t-125.5 -415.5q0 -217 91 -372.5t251 -227.5v-180h-577v168z" />
    <glyph glyph-name="ae" unicode="&#xe6;" horiz-adv-x="1557" 
d="M1488 500h-666q0 -128 32 -210.5t104.5 -133t159.5 -50.5q163 0 350 153v-146q-90 -76 -177 -109.5t-197 -33.5q-127 0 -210.5 48t-143.5 145q-65 -102 -144.5 -147.5t-196.5 -45.5q-163 0 -243.5 73.5t-80.5 198.5q0 81 27 138t81.5 100t123.5 65l144 44l224 59
q0 142 -47.5 195.5t-143.5 53.5q-99 0 -158 -50q-41 -34 -41 -106v-52h-127v206q65 45 159.5 74.5t189.5 29.5q114 0 184.5 -39t96.5 -100q110 139 301 139q188 0 294 -115.5t106 -351.5q0 -11 -1 -32zM1320 612q-7 138 -72 206.5t-162 68.5q-93 0 -161.5 -65t-93.5 -210
h489zM675 541l-171 -41q-15 -3 -107 -36q-48 -17 -84 -45.5t-54 -65t-18 -87.5q0 -78 48.5 -125.5t130.5 -47.5q117 0 186 74t69 227v147z" />
    <glyph glyph-name="oslash" unicode="&#xf8;" horiz-adv-x="1109" 
d="M938 818q84 -131 84 -316q0 -245 -135 -388.5t-347 -143.5q-101 0 -180 28q-55 19 -114 65l-114 -124l-84 75l123 135q-86 123 -86 317q0 247 134.5 390t347.5 143q98 0 182 -30q52 -19 113 -67l114 123l83 -75zM291 279l470 512q-87 89 -206 89q-127 0 -213.5 -101.5
t-86.5 -301.5q0 -102 36 -198zM821 691l-471 -514q87 -89 207 -89q125 0 209.5 99.5t84.5 301.5q0 111 -30 202z" />
    <glyph glyph-name="questiondown" unicode="&#xbf;" horiz-adv-x="875" 
d="M490 1018q46 0 78 -32t32 -78t-32 -78t-78 -32t-78 32t-32 78t32 78t78 32zM806 -74v-259q-82 -60 -171.5 -90.5t-185.5 -30.5q-182 0 -282.5 94.5t-100.5 242.5q0 61 17 113.5t51 105.5q25 39 121 154.5t131 201t41 199.5h132q1 -90 -20 -174.5t-53 -142.5
q-24 -44 -111 -158q-65 -86 -79 -109q-30 -50 -46 -100t-16 -99q0 -92 61.5 -151t164.5 -59q119 0 181 78q35 43 35 137v47h130z" />
    <glyph glyph-name="exclamdown" unicode="&#xa1;" horiz-adv-x="491" 
d="M246 799q-46 0 -78 32t-32 78q0 45 32 77t78 32q45 0 77 -32t32 -77q0 -46 -32 -78t-77 -32zM330 -423h-169v120l20 944h128l21 -944v-120z" />
    <glyph glyph-name="logicalnot" unicode="&#xac;" horiz-adv-x="1365" 
d="M135 993h1096v-644h-157v487h-939v157z" />
    <glyph glyph-name="radical" unicode="&#x221a;" horiz-adv-x="1131" 
d="M1054 1869h74l-312 -1947l-496 1021l-198 -91l-34 64l301 151l405 -823z" />
    <glyph glyph-name="florin" unicode="&#x192;" horiz-adv-x="1067" 
d="M1072 1395l-50 -178h-97q1 11 2 17q4 29 4 36q0 33 -21 53.5t-58 20.5q-70 0 -126.5 -73t-86.5 -323h165l-21 -112h-154l-91 -740q-38 -307 -143 -425.5t-249 -118.5q-36 0 -72.5 8.5t-74.5 24.5l28 169h97l-2 -16q-2 -19 -2 -25q0 -27 16 -44t42 -17q47 0 88.5 45.5
t73.5 189.5t43 272q1 11 2 24l74 653h-158l24 112h146q33 188 73 270q53 111 136.5 167.5t194.5 56.5q47 0 96.5 -11.5t100.5 -35.5z" />
    <glyph glyph-name="approxequal" unicode="&#x2248;" horiz-adv-x="1195" 
d="M87 738v205q106 120 278 120q60 0 125.5 -17t188.5 -70q69 -30 103.5 -38.5t69.5 -8.5q65 0 134.5 39t123.5 98v-212q-64 -60 -129.5 -87t-147.5 -27q-60 0 -114 13.5t-173 67t-198 53.5q-64 0 -120.5 -27.5t-140.5 -108.5zM87 376v205q106 120 278 120q60 0 125.5 -17
t188.5 -70q69 -29 103.5 -38t69.5 -9q65 0 134.5 39t123.5 98v-212q-64 -60 -129.5 -87t-147.5 -27q-60 0 -114 14t-173 67t-198 53q-64 0 -120.5 -27.5t-140.5 -108.5z" />
    <glyph glyph-name="Delta" unicode="&#x2206;" horiz-adv-x="1253" 
d="M1226 0h-1200l628 1387zM990 82l-399 967l-440 -967h839z" />
    <glyph glyph-name="guillemotleft" unicode="&#xab;" horiz-adv-x="960" 
d="M742 875h149l-240 -389l240 -393h-149l-263 393zM326 875h153l-245 -389l245 -393h-153l-265 393z" />
    <glyph glyph-name="guillemotright" unicode="&#xbb;" horiz-adv-x="960" 
d="M69 875h149l263 -389l-263 -393h-149l240 393zM481 875h153l265 -389l-265 -393h-153l245 393z" />
    <glyph glyph-name="ellipsis" unicode="&#x2026;" horiz-adv-x="2048" 
d="M341 192q46 0 78.5 -32.5t32.5 -78.5t-32.5 -78.5t-78.5 -32.5t-78.5 32.5t-32.5 78.5t32.5 78.5t78.5 32.5zM1024 192q46 0 78.5 -32.5t32.5 -78.5t-33 -78.5t-78 -32.5q-46 0 -78.5 32.5t-32.5 78.5t32 78.5t79 32.5zM1706 192q46 0 78.5 -32.5t32.5 -78.5t-32.5 -78.5
t-78.5 -32.5t-78.5 32.5t-32.5 78.5t32.5 78.5t78.5 32.5z" />
    <glyph glyph-name="nbspace" unicode="&#xa0;" horiz-adv-x="512" 
 />
    <glyph glyph-name="Agrave" unicode="&#xc0;" horiz-adv-x="1387" 
d="M611 1423h166l420 -1189q31 -90 62 -117q18 -16 70 -16h39v-101h-460v101h53q54 0 67.5 11t13.5 36q0 24 -22 86l-75 217h-539l-80 -225q-19 -52 -19 -74q0 -24 19 -40q13 -11 65 -11h57v-101h-429v101h37q49 0 75.5 21.5t50.5 89.5zM448 574h452l-226 637zM687 1512
l-218 263h200l133 -263h-115z" />
    <glyph glyph-name="Atilde" unicode="&#xc3;" horiz-adv-x="1387" 
d="M611 1423h166l420 -1189q31 -90 62 -117q18 -16 70 -16h39v-101h-460v101h53q54 0 67.5 11t13.5 36q0 24 -22 86l-75 217h-539l-80 -225q-19 -52 -19 -74q0 -24 19 -40q13 -11 65 -11h57v-101h-429v101h37q49 0 75.5 21.5t50.5 89.5zM448 574h452l-226 637zM888 1704h111
q-1 -86 -50.5 -139.5t-119.5 -53.5q-33 0 -68.5 10t-101 40t-89.5 30q-25 0 -44 -18t-26 -61h-112q7 95 57.5 144t129.5 49q60 0 127 -35.5t78 -38.5q19 -7 38 -7q27 0 45 18t25 62z" />
    <glyph glyph-name="Otilde" unicode="&#xd5;" horiz-adv-x="1557" 
d="M104 686q0 351 191 553.5t487 202.5q300 0 485.5 -196.5t185.5 -537.5q0 -339 -194 -542t-489 -203q-290 0 -478 195.5t-188 527.5zM295 701q0 -305 134.5 -454.5t351.5 -149.5q209 0 344 155.5t135 469.5q0 289 -133 437t-347 148q-215 0 -350 -151t-135 -455zM973 1704
h111q-1 -86 -50.5 -139.5t-119.5 -53.5q-33 0 -68.5 10t-101 40t-89.5 30q-25 0 -44 -18t-26 -61h-112q7 95 57.5 144t129.5 49q60 0 127 -35.5t78 -38.5q19 -7 38 -7q27 0 45 18t25 62z" />
    <glyph glyph-name="OE" unicode="&#x152;" horiz-adv-x="2069" 
d="M1960 1404v-316h-130v101q0 51 -14 65q-20 21 -65 21l-23 -1h-479v-492h381q44 0 60.5 17.5t16.5 69.5v50h114v-402h-114v62q0 48 -18 63.5t-87 15.5h-353v-535h495q61 0 76 5q19 7 28.5 22.5t9.5 63.5v94h130v-308h-847l-210 -8q-79 -2 -98 -2q-313 0 -494 149
q-234 193 -234 550q0 338 192 529t540 191l292 -5h831zM1074 1178q0 64 -22 81q-39 30 -204 30q-197 0 -318 -73t-179 -209t-58 -305q0 -291 149.5 -442.5t456.5 -151.5q118 0 153 26q22 17 22 75v969z" />
    <glyph glyph-name="oe" unicode="&#x153;" horiz-adv-x="1749" 
d="M1674 497h-670q-1 -13 -1 -26q0 -175 85.5 -271t213.5 -96q85 0 174 38q62 26 173 116v-148q-96 -77 -179.5 -108.5t-191.5 -31.5q-121 0 -210.5 50.5t-147.5 151.5q-68 -103 -158 -152.5t-215 -49.5q-211 0 -335 131t-124 369q0 244 135.5 386.5t347.5 142.5
q128 0 219.5 -49.5t146.5 -149.5q108 199 341 199q185 0 289.5 -117t106.5 -385zM1504 609q-6 136 -70 205.5t-162 69.5q-95 0 -165.5 -67t-93.5 -208h491zM261 480q0 -198 85.5 -297t213.5 -99q126 0 211 101t85 303q0 194 -84 290.5t-214 96.5q-128 0 -212.5 -98.5
t-84.5 -296.5z" />
    <glyph glyph-name="endash" unicode="&#x2013;" horiz-adv-x="1024" 
d="M-12 577h1048v-130h-1048v130z" />
    <glyph glyph-name="emdash" unicode="&#x2014;" horiz-adv-x="2048" 
d="M-12 577h2072v-130h-2072v130z" />
    <glyph glyph-name="quotedblleft" unicode="&#x201c;" horiz-adv-x="853" 
d="M377 1442v-80q-75 -40 -105 -78.5t-40 -99.5h17q47 0 80 -33t33 -81q0 -45 -32 -77t-77 -32q-55 0 -94 46t-39 126q0 97 65 181.5t192 127.5zM733 1442v-80q-75 -40 -105 -78.5t-40 -99.5h17q47 0 80 -33t33 -81q0 -45 -32 -77t-77 -32q-55 0 -94 46t-39 126
q0 97 65 181.5t192 127.5z" />
    <glyph glyph-name="quotedblright" unicode="&#x201d;" horiz-adv-x="853" 
d="M476 961v80q74 39 104 78t40 100h-16q-48 0 -81 33t-33 81q0 45 32.5 77t77.5 32q55 0 94 -46t39 -126q0 -97 -65.5 -181.5t-191.5 -127.5zM120 961v80q74 39 104.5 78t40.5 100h-17q-48 0 -81 33t-33 81q0 45 32.5 77t77.5 32q55 0 94 -46t39 -126q0 -97 -65.5 -181.5
t-191.5 -127.5z" />
    <glyph glyph-name="quoteleft" unicode="&#x2018;" horiz-adv-x="491" 
d="M375 1442v-80q-75 -40 -105 -78.5t-40 -99.5h17q47 0 80 -33t33 -81q0 -45 -32 -77t-77 -32q-55 0 -94 46t-39 126q0 97 65 181.5t192 127.5z" />
    <glyph glyph-name="quoteright" unicode="&#x2019;" horiz-adv-x="491" 
d="M118 961v80q74 39 104.5 78t40.5 100h-17q-48 0 -81 33t-33 81q0 45 32.5 77t77.5 32q55 0 94 -46t39 -126q0 -97 -65.5 -181.5t-191.5 -127.5z" />
    <glyph glyph-name="divide" unicode="&#xf7;" horiz-adv-x="1365" 
d="M778 1085q0 -41 -29 -69.5t-69 -28.5q-41 0 -69.5 28.5t-28.5 69.5q0 40 28.5 69t69.5 29q40 0 69 -29t29 -69zM135 742h1096v-151h-1096v151zM780 257q0 -41 -29 -70t-70 -29t-70 29t-29 70q0 40 29 69t70 29t70 -29t29 -69z" />
    <glyph glyph-name="lozenge" unicode="&#x25ca;" horiz-adv-x="1003" 
d="M543 1422l418 -713l-418 -709h-111l-391 709l391 713h111zM489 1325l-340 -616l340 -615l359 615z" />
    <glyph glyph-name="ydieresis" unicode="&#xff;" horiz-adv-x="1045" 
d="M7 970h419v-93h-49q-33 0 -48 -12q-12 -9 -12 -26t15 -53q2 -5 8 -21l212 -559l197 531q26 70 26 99q0 19 -14 30t-51 11h-38v93h367v-93h-25q-41 0 -62 -16.5t-49 -88.5l-360 -921q-74 -191 -144 -248t-177 -57q-87 0 -167 37v192h115v-33q0 -46 18.5 -66t50.5 -20
q62 0 104 67q73 119 116 277l-289 737q-38 96 -64 118t-74 22h-25v93zM329 1291q38 0 64.5 -26.5t26.5 -64.5q0 -37 -26.5 -63.5t-64.5 -26.5q-37 0 -63.5 26.5t-26.5 63.5q0 38 26.5 64.5t63.5 26.5zM715 1291q38 0 64.5 -26.5t26.5 -64.5q0 -37 -26.5 -63.5t-64.5 -26.5
q-37 0 -63.5 26.5t-26.5 63.5q0 38 26.5 64.5t63.5 26.5z" />
    <glyph glyph-name="Ydieresis" unicode="&#x178;" horiz-adv-x="1344" 
d="M14 1404h469v-101h-41q-46 0 -59.5 -10t-13.5 -27q0 -14 35 -73l289 -486l294 466q42 67 42 92q0 18 -13.5 28t-64.5 10h-58v101h436v-101q-70 0 -97 -16t-69 -81l-406 -644v-388q0 -42 19 -57.5t88 -15.5h40v-101h-471v101h50q63 0 83 23q14 16 14 78v352l-387 639
q-41 69 -70.5 89.5t-76.5 20.5h-32v101zM479 1693q38 0 64.5 -26.5t26.5 -64.5q0 -37 -26.5 -63.5t-64.5 -26.5q-37 0 -63.5 26.5t-26.5 63.5q0 38 26.5 64.5t63.5 26.5zM865 1693q38 0 64.5 -26.5t26.5 -64.5q0 -37 -26.5 -63.5t-64.5 -26.5q-37 0 -63.5 26.5t-26.5 63.5
q0 38 26.5 64.5t63.5 26.5z" />
    <glyph glyph-name="fraction" unicode="&#x2215;" horiz-adv-x="384" 
d="M574 1442h121l-884 -1481h-122z" />
    <glyph glyph-name="currency" unicode="&#xa4;" horiz-adv-x="1408" 
d="M949 1038l129 129l104 -106l-127 -128q85 -129 85 -267q0 -137 -85 -265l127 -127l-104 -105l-129 127q-64 -43 -130 -64.5t-134 -21.5q-141 0 -268 85l-127 -126l-107 105l128 127q-85 127 -85 266q0 137 85 266l-128 128l105 106l129 -128q65 43 131.5 64t134.5 21
q74 0 136 -20.5t130 -65.5zM990 667q0 127 -90 217t-217 90t-217 -90t-90 -217q0 -128 90 -218t217 -90t217 90t90 218z" />
    <glyph glyph-name="guilsinglleft" unicode="&#x2039;" horiz-adv-x="555" 
d="M330 875h153l-245 -389l245 -393h-153l-265 393z" />
    <glyph glyph-name="guilsinglright" unicode="&#x203a;" horiz-adv-x="555" 
d="M72 875h153l265 -389l-265 -393h-153l245 393z" />
    <glyph glyph-name="fi" unicode="&#xf001;" horiz-adv-x="1088" 
d="M875 1364v-202h-128v38q0 74 -37.5 107.5t-130.5 33.5q-126 0 -190 -97q-47 -70 -47 -223v-51h575v-817q0 -33 14 -46.5t53 -13.5h46v-93h-398v93h39q53 0 67 13q19 18 19 74v564q0 78 -14.5 93.5t-79.5 15.5h-321v-704q0 -35 12 -45.5t63 -10.5h51v-93h-423v93h47
q54 0 68.5 15.5t14.5 83.5v661h-130v117h130v38q0 198 70 290q108 144 339 144q161 0 291 -78z" />
    <glyph glyph-name="fl" unicode="&#xf002;" horiz-adv-x="1131" 
d="M950 1442v-1265q0 -54 15 -69t61 -15h38v-93h-397v93h45q48 0 63.5 15.5t15.5 68.5v675h-442v-675q0 -58 13 -71t68 -13h43v-93h-422v93h50q47 0 63.5 15.5t16.5 52.5v691h-130v118h130v59q0 201 106 307t293 106q50 0 100.5 -9.5t101.5 -28.5zM791 970v168
q0 80 -18.5 116t-67 61t-115.5 25q-114 0 -177.5 -72t-63.5 -246v-52h442z" />
    <glyph glyph-name="daggerdbl" unicode="&#x2021;" horiz-adv-x="917" 
d="M376 1442h165v-85l-17 -383l239 10h85v-148h-85l-239 9l17 -311v-84l-17 -310l240 9h84v-148h-84l-240 9l17 -379v-85h-165v85l19 379l-241 -9h-85v148h84l242 -9l-19 310v84l19 311l-242 -9h-84v148h85l241 -10l-19 383v85z" />
    <glyph glyph-name="periodcentered" unicode="&#x2219;" horiz-adv-x="491" 
d="M245 814q46 0 78.5 -32.5t32.5 -78.5t-32.5 -78.5t-78.5 -32.5t-78.5 32.5t-32.5 78.5t32.5 78.5t78.5 32.5z" />
    <glyph glyph-name="quotesinglbase" unicode="&#x201a;" horiz-adv-x="491" 
d="M117 -277v80q72 44 102 83t43 96q-11 -1 -19 -1q-46 0 -78.5 33t-32.5 82q0 46 31.5 77.5t77.5 31.5q54 0 93 -46t39 -131q0 -95 -63.5 -177t-192.5 -128z" />
    <glyph glyph-name="quotedblbase" unicode="&#x201e;" horiz-adv-x="853" 
d="M476 -276v80q74 39 104 78t40 100h-16q-48 0 -81 33t-33 81q0 45 32.5 77t77.5 32q55 0 94 -46t39 -126q0 -97 -65.5 -181.5t-191.5 -127.5zM120 -276v80q74 39 104.5 78t40.5 100h-17q-48 0 -81 33t-33 81q0 45 32.5 77t77.5 32q55 0 94 -46t39 -126q0 -97 -65.5 -181.5
t-191.5 -127.5z" />
    <glyph glyph-name="perthousand" unicode="&#x2030;" horiz-adv-x="2183" 
d="M50 1061q0 203 75 292t201 89q128 0 199 -85t71 -286q0 -210 -75.5 -299.5t-202.5 -89.5q-126 0 -197 85t-71 294zM179 1059q0 -180 41 -239t102 -59q64 0 98 50q46 68 46 260q0 175 -40.5 232.5t-100.5 57.5q-63 0 -104.5 -59.5t-41.5 -242.5zM1045 1442h121l-714 -1481
h-123zM889 340q0 203 75 292t202 89t198.5 -85t71.5 -286q0 -210 -75.5 -299.5t-203.5 -89.5q-126 0 -197 85t-71 294zM1018 338q0 -180 41 -239t102 -59q64 0 98 50q46 68 46 260q0 175 -40.5 232.5t-100.5 57.5q-63 0 -104.5 -59.5t-41.5 -242.5zM1591 340q0 203 75 292
t202 89t198.5 -85t71.5 -286q0 -210 -75.5 -299.5t-203.5 -89.5q-126 0 -197 85t-71 294zM1720 338q0 -180 41 -239t102 -59q64 0 98 50q46 68 46 260q0 175 -40.5 232.5t-100.5 57.5q-63 0 -104.5 -59.5t-41.5 -242.5z" />
    <glyph glyph-name="Acircumflex" unicode="&#xc2;" horiz-adv-x="1387" 
d="M611 1423h166l420 -1189q31 -90 62 -117q18 -16 70 -16h39v-101h-460v101h53q54 0 67.5 11t13.5 36q0 24 -22 86l-75 217h-539l-80 -225q-19 -52 -19 -74q0 -24 19 -40q13 -11 65 -11h57v-101h-429v101h37q49 0 75.5 21.5t50.5 89.5zM448 574h452l-226 637zM553 1512
h-138l196 263h166l194 -263h-143l-138 181z" />
    <glyph glyph-name="Ecircumflex" unicode="&#xca;" horiz-adv-x="1237" 
d="M99 1404h1027v-314h-130v102q0 42 -9 57t-33 23q-11 3 -84 5h-457v-492h359q62 0 80 17t18 72v47h115v-402h-115v63q0 47 -20.5 63t-86.5 16h-350v-537h517q56 0 73 18.5t17 81.5v87h131v-311h-1052v101h50q53 0 70 17.5t17 80.5v1016q0 54 -17 71t-70 17h-50v101z
M478 1512h-138l196 263h166l194 -263h-143l-138 181z" />
    <glyph glyph-name="Aacute" unicode="&#xc1;" horiz-adv-x="1387" 
d="M611 1423h166l420 -1189q31 -90 62 -117q18 -16 70 -16h39v-101h-460v101h53q54 0 67.5 11t13.5 36q0 24 -22 86l-75 217h-539l-80 -225q-19 -52 -19 -74q0 -24 19 -40q13 -11 65 -11h57v-101h-429v101h37q49 0 75.5 21.5t50.5 89.5zM448 574h452l-226 637zM699 1512
h-114l133 263h200z" />
    <glyph glyph-name="Edieresis" unicode="&#xcb;" horiz-adv-x="1237" 
d="M99 1404h1027v-314h-130v102q0 42 -9 57t-33 23q-11 3 -84 5h-457v-492h359q62 0 80 17t18 72v47h115v-402h-115v63q0 47 -20.5 63t-86.5 16h-350v-537h517q56 0 73 18.5t17 81.5v87h131v-311h-1052v101h50q53 0 70 17.5t17 80.5v1016q0 54 -17 71t-70 17h-50v101z
M425 1693q38 0 64.5 -26.5t26.5 -64.5q0 -37 -26.5 -63.5t-64.5 -26.5q-37 0 -63.5 26.5t-26.5 63.5q0 38 26.5 64.5t63.5 26.5zM811 1693q38 0 64.5 -26.5t26.5 -64.5q0 -37 -26.5 -63.5t-64.5 -26.5q-37 0 -63.5 26.5t-26.5 63.5q0 38 26.5 64.5t63.5 26.5z" />
    <glyph glyph-name="Egrave" unicode="&#xc8;" horiz-adv-x="1237" 
d="M99 1404h1027v-314h-130v102q0 42 -9 57t-33 23q-11 3 -84 5h-457v-492h359q62 0 80 17t18 72v47h115v-402h-115v63q0 47 -20.5 63t-86.5 16h-350v-537h517q56 0 73 18.5t17 81.5v87h131v-311h-1052v101h50q53 0 70 17.5t17 80.5v1016q0 54 -17 71t-70 17h-50v101z
M612 1512l-218 263h200l133 -263h-115z" />
    <glyph glyph-name="Iacute" unicode="&#xcd;" 
d="M114 1404h454v-101h-35q-68 0 -89 -21q-15 -16 -15 -96v-998q0 -54 16 -68q21 -19 88 -19h35v-101h-454v101h42q65 0 80.5 16.5t15.5 93.5v1023q0 38 -18.5 53.5t-77.5 15.5h-42v101zM447 1512h-114l133 263h200z" />
    <glyph glyph-name="Icircumflex" unicode="&#xce;" 
d="M-120 1404h454v-101h-35q-68 0 -89 -21q-15 -16 -15 -96v-998q0 -54 16 -68q21 -19 88 -19h35v-101h-454v101h42q65 0 80.5 16.5t15.5 93.5v1023q0 38 -18.5 53.5t-77.5 15.5h-42v101zM-33 1512h-138l196 263h166l194 -263h-143l-138 181z" />
    <glyph glyph-name="Idieresis" unicode="&#xcf;" 
d="M114 1404h454v-101h-35q-68 0 -89 -21q-15 -16 -15 -96v-998q0 -54 16 -68q21 -19 88 -19h35v-101h-454v101h42q65 0 80.5 16.5t15.5 93.5v1023q0 38 -18.5 53.5t-77.5 15.5h-42v101zM148 1693q38 0 64.5 -26.5t26.5 -64.5q0 -37 -26.5 -63.5t-64.5 -26.5
q-37 0 -63.5 26.5t-26.5 63.5q0 38 26.5 64.5t63.5 26.5zM534 1693q38 0 64.5 -26.5t26.5 -64.5q0 -37 -26.5 -63.5t-64.5 -26.5q-37 0 -63.5 26.5t-26.5 63.5q0 38 26.5 64.5t63.5 26.5z" />
    <glyph glyph-name="Igrave" unicode="&#xcc;" 
d="M114 1404h454v-101h-35q-68 0 -89 -21q-15 -16 -15 -96v-998q0 -54 16 -68q21 -19 88 -19h35v-101h-454v101h42q65 0 80.5 16.5t15.5 93.5v1023q0 38 -18.5 53.5t-77.5 15.5h-42v101zM335 1512l-218 263h200l133 -263h-115z" />
    <glyph glyph-name="Oacute" unicode="&#xd3;" horiz-adv-x="1557" 
d="M104 686q0 351 191 553.5t487 202.5q300 0 485.5 -196.5t185.5 -537.5q0 -339 -194 -542t-489 -203q-290 0 -478 195.5t-188 527.5zM295 701q0 -305 134.5 -454.5t351.5 -149.5q209 0 344 155.5t135 469.5q0 289 -133 437t-347 148q-215 0 -350 -151t-135 -455zM847 1512
h-114l133 263h200z" />
    <glyph glyph-name="Ocircumflex" unicode="&#xd4;" horiz-adv-x="1557" 
d="M104 686q0 351 191 553.5t487 202.5q300 0 485.5 -196.5t185.5 -537.5q0 -339 -194 -542t-489 -203q-290 0 -478 195.5t-188 527.5zM295 701q0 -305 134.5 -454.5t351.5 -149.5q209 0 344 155.5t135 469.5q0 289 -133 437t-347 148q-215 0 -350 -151t-135 -455zM638 1512
h-138l196 263h166l194 -263h-143l-138 181z" />
    <glyph glyph-name="apple" unicode="&#xf000;" horiz-adv-x="1621" 
d="M1156 1596q1 -35 1 -62q0 -93 -47 -165t-156 -133q-35 -20 -124 -26q-2 22 -2 32q0 61 42.5 145.5t119.5 140.5q55 40 166 68zM1456 1063q-95 -67 -134 -132q-55 -92 -55 -201q0 -96 55 -183.5t177 -148.5q-119 -260 -226 -356q-81 -73 -184 -73q-51 0 -127.5 29.5
t-118.5 29.5q-51 0 -128.5 -29.5t-121.5 -29.5q-107 0 -200 93q-131 132 -202.5 324t-71.5 350q0 181 92 312q120 170 363 170q71 0 144 -31.5t119 -31.5q26 0 45 5t84.5 32t143.5 27q113 0 190.5 -36t155.5 -120z" />
    <glyph glyph-name="Ograve" unicode="&#xd2;" horiz-adv-x="1557" 
d="M104 686q0 351 191 553.5t487 202.5q300 0 485.5 -196.5t185.5 -537.5q0 -339 -194 -542t-489 -203q-290 0 -478 195.5t-188 527.5zM295 701q0 -305 134.5 -454.5t351.5 -149.5q209 0 344 155.5t135 469.5q0 289 -133 437t-347 148q-215 0 -350 -151t-135 -455zM772 1512
l-218 263h200l133 -263h-115z" />
    <glyph glyph-name="Uacute" unicode="&#xda;" horiz-adv-x="1472" 
d="M60 1404h459v-101h-49q-63 0 -80 -26q-10 -15 -10 -89v-683q0 -205 87 -307t283 -102q187 0 279 93.5t92 294.5v738q0 48 -17.5 64.5t-74.5 16.5h-46v101h428v-101h-51q-51 0 -68.5 -16t-17.5 -54v-739q0 -264 -134 -397q-135 -134 -395 -134q-183 0 -302 57
t-181.5 166.5t-62.5 297.5v718q0 65 -18.5 83t-82.5 18h-38v101zM797 1512h-114l133 263h200z" />
    <glyph glyph-name="Ucircumflex" unicode="&#xdb;" horiz-adv-x="1472" 
d="M60 1404h459v-101h-49q-63 0 -80 -26q-10 -15 -10 -89v-683q0 -205 87 -307t283 -102q187 0 279 93.5t92 294.5v738q0 48 -17.5 64.5t-74.5 16.5h-46v101h428v-101h-51q-51 0 -68.5 -16t-17.5 -54v-739q0 -264 -134 -397q-135 -134 -395 -134q-183 0 -302 57
t-181.5 166.5t-62.5 297.5v718q0 65 -18.5 83t-82.5 18h-38v101zM596 1512h-138l196 263h166l194 -263h-143l-138 181z" />
    <glyph glyph-name="Ugrave" unicode="&#xd9;" horiz-adv-x="1472" 
d="M60 1404h459v-101h-49q-63 0 -80 -26q-10 -15 -10 -89v-683q0 -205 87 -307t283 -102q187 0 279 93.5t92 294.5v738q0 48 -17.5 64.5t-74.5 16.5h-46v101h428v-101h-51q-51 0 -68.5 -16t-17.5 -54v-739q0 -264 -134 -397q-135 -134 -395 -134q-183 0 -302 57
t-181.5 166.5t-62.5 297.5v718q0 65 -18.5 83t-82.5 18h-38v101zM730 1512l-218 263h200l133 -263h-115z" />
    <glyph glyph-name="dotlessi" unicode="&#x131;" horiz-adv-x="512" 
d="M38 955l300 28v-798q0 -66 11 -79t56 -13h47v-93h-396v93h47q48 0 60 14q16 18 16 86v562q0 76 -15 92t-75 16h-51v92z" />
    <glyph glyph-name="circumflex" unicode="&#x2c6;" 
d="M201 1110h-138l196 263h166l194 -263h-143l-138 181z" />
    <glyph glyph-name="tilde" unicode="&#x2dc;" 
d="M536 1302h111q-1 -86 -50.5 -139.5t-119.5 -53.5q-33 0 -68.5 10t-101 40t-89.5 30q-25 0 -44 -18t-26 -61h-112q7 95 57.5 144t129.5 49q60 0 127 -35.5t78 -38.5q19 -7 38 -7q27 0 45 18t25 62z" />
    <glyph glyph-name="macron" unicode="&#x2c9;" 
d="M39 1221h605v-111h-605v111z" />
    <glyph glyph-name="breve" unicode="&#x2d8;" 
d="M92 1364h109q8 -71 47 -107t97 -36q54 0 90.5 35t48.5 108h107q0 -112 -70 -183t-179 -71q-107 0 -175.5 67.5t-74.5 186.5z" />
    <glyph glyph-name="dotaccent" unicode="&#x2d9;" 
d="M341 1291q38 0 64.5 -26.5t26.5 -64.5q0 -37 -26.5 -63.5t-64.5 -26.5q-37 0 -63.5 26.5t-26.5 63.5q0 38 26.5 64.5t63.5 26.5z" />
    <glyph glyph-name="ring" unicode="&#x2da;" 
d="M341 1479q77 0 131 -54t54 -131q0 -76 -54 -130t-131 -54q-76 0 -130 54t-54 130q0 77 54 131t130 54zM341 1405q-46 0 -78.5 -32.5t-32.5 -78.5t32.5 -78.5t78.5 -32.5t78.5 32.5t32.5 78.5t-32.5 78.5t-78.5 32.5z" />
    <glyph glyph-name="cedilla" unicode="&#xb8;" 
d="M304 21h111l-32 -102q70 0 115.5 -43.5t45.5 -105.5q0 -71 -57.5 -120.5t-174.5 -49.5q-86 0 -177 27v95q85 -24 160 -24q62 0 93 24q23 18 23 48t-23 49q-29 24 -83 24q-14 0 -51 -3z" />
    <glyph glyph-name="hungarumlaut" unicode="&#x2dd;" 
d="M260 1366h199l-219 -256h-110zM560 1366h195l-220 -256h-104z" />
    <glyph glyph-name="ogonek" unicode="&#x2db;" 
d="M311 14h141q-153 -96 -153 -197q0 -45 31.5 -74t85.5 -29q26 0 88 12v-96q-64 -17 -111 -17q-106 0 -162.5 51.5t-56.5 131.5q0 122 137 218z" />
    <glyph glyph-name="caron" unicode="&#x2c7;" 
d="M481 1373h138l-196 -263h-166l-194 263h143l138 -181z" />
    <glyph glyph-name="Lslash" unicode="&#x141;" horiz-adv-x="1162" 
d="M232 715v496q0 57 -18 74.5t-77 17.5h-43v101h471v-101h-54q-57 0 -73.5 -8t-24.5 -26q-5 -13 -5 -75v-347l226 168v-154l-226 -168v-571h485q54 0 71 18t17 80v112h133v-332h-1020v101h43q48 0 65 9t25 28q5 11 5 67v356l-139 -103v154z" />
    <glyph glyph-name="lslash" unicode="&#x142;" horiz-adv-x="523" 
d="M182 557l-155 -147v142l155 148v525q0 65 -14 80t-74 15q-22 0 -55 -2v91l307 33v-587l148 141v-143l-148 -141v-522q0 -71 14.5 -84t100.5 -13v-93h-403v93h32q62 0 77 15.5t15 81.5v367z" />
    <glyph glyph-name="Scaron" unicode="&#x160;" horiz-adv-x="1088" 
d="M950 1354v-310h-138v54q0 95 -17.5 128.5t-82.5 63.5t-157 30q-120 0 -186 -60.5t-66 -149.5q0 -82 55 -144q55 -63 282 -177q154 -77 203 -114q70 -53 113 -129.5t43 -177.5q0 -176 -122.5 -290.5t-343.5 -114.5q-128 0 -237.5 21t-201.5 62v352h147v-78
q0 -85 28.5 -131.5t99 -75.5t162.5 -29q132 0 209.5 71.5t77.5 177.5q0 93 -52 157q-52 63 -232.5 153.5t-238.5 133.5q-83 62 -127 139.5t-44 163.5q0 93 52.5 179t153 134.5t237.5 48.5q86 0 194 -24t189 -64zM731 1775h138l-196 -263h-166l-194 263h143l138 -181z" />
    <glyph glyph-name="scaron" unicode="&#x161;" horiz-adv-x="853" 
d="M729 937v-252h-124v71q0 56 -15 81.5t-60.5 44.5t-105.5 19q-85 0 -130 -40t-45 -99q0 -38 21.5 -70.5t56.5 -53t156.5 -74.5t162.5 -81q65 -44 99 -98.5t34 -124.5q0 -119 -90 -204.5t-278 -85.5q-83 0 -165 16t-163 47v277h133v-79q0 -81 37 -112q54 -46 161 -46
q100 0 151 46t51 117q0 56 -36 95q-36 38 -178 102.5t-181 90.5q-59 39 -91.5 90t-32.5 120q0 111 87 188t248 77q84 0 158 -15.5t139 -46.5zM566 1373h138l-196 -263h-166l-194 263h143l138 -181z" />
    <glyph glyph-name="Zcaron" unicode="&#x17d;" horiz-adv-x="1259" 
d="M118 1404h1029v-131l-848 -1143h637q59 0 78 8.5t26 25t7 83.5v112h129v-359h-1088v130l848 1143h-550q-103 0 -121.5 -15.5t-18.5 -83.5v-116h-128v346zM769 1775h138l-196 -263h-166l-194 263h143l138 -181z" />
    <glyph glyph-name="zcaron" unicode="&#x17e;" horiz-adv-x="896" 
d="M69 699v271h759v-114l-584 -742h385q61 0 74.5 12.5t13.5 60.5v102h131v-289h-800v114l587 742h-360q-53 0 -65 -12t-12 -60v-85h-129zM588 1373h138l-196 -263h-166l-194 263h143l138 -181z" />
    <glyph glyph-name="brokenbar" unicode="&#xa6;" horiz-adv-x="1109" 
d="M475 1442h159v-823h-159v823zM475 368h159v-822h-159v822z" />
    <glyph glyph-name="Eth" unicode="&#xd0;" horiz-adv-x="1493" 
d="M231 633h-136v129h136v440l-1 26q0 42 -15 57q-21 18 -74 18h-48v101h600q241 0 383.5 -69.5t229 -231.5t86.5 -392q0 -358 -215 -563q-155 -148 -437 -148h-647v101h48q62 0 79 23q11 15 11 88v421zM407 633v-509h284q60 0 146.5 14t135.5 44q68 42 121 115t80 173.5
t27 232.5q0 210 -70 341t-184 181.5t-289 50.5h-251v-514h377v-129h-377z" />
    <glyph glyph-name="eth" unicode="&#xf0;" horiz-adv-x="1121" 
d="M566 1311l227 126l48 -91l-186 -103q176 -139 276.5 -333.5t100.5 -397.5q0 -256 -136.5 -400t-358.5 -144q-200 0 -324 130t-124 354q0 239 126.5 375t320.5 136q95 0 207 -45q-89 149 -211 257l-241 -133l-46 91l202 112q-81 60 -153 95l60 102q104 -52 212 -131z
M261 453q0 -177 86.5 -273.5t212.5 -96.5t211.5 99t85.5 288q0 192 -80.5 285.5t-216.5 93.5q-128 0 -213.5 -100t-85.5 -296z" />
    <glyph glyph-name="Yacute" unicode="&#xdd;" horiz-adv-x="1344" 
d="M14 1404h469v-101h-41q-46 0 -59.5 -10t-13.5 -27q0 -14 35 -73l289 -486l294 466q42 67 42 92q0 18 -13.5 28t-64.5 10h-58v101h436v-101q-70 0 -97 -16t-69 -81l-406 -644v-388q0 -42 19 -57.5t88 -15.5h40v-101h-471v101h50q63 0 83 23q14 16 14 78v352l-387 639
q-41 69 -70.5 89.5t-76.5 20.5h-32v101zM797 1512h-114l133 263h200z" />
    <glyph glyph-name="yacute" unicode="&#xfd;" horiz-adv-x="1045" 
d="M7 970h419v-93h-49q-33 0 -48 -12q-12 -9 -12 -26t15 -53q2 -5 8 -21l212 -559l197 531q26 70 26 99q0 19 -14 30t-51 11h-38v93h367v-93h-25q-41 0 -62 -16.5t-49 -88.5l-360 -921q-74 -191 -144 -248t-177 -57q-87 0 -167 37v192h115v-33q0 -46 18.5 -66t50.5 -20
q62 0 104 67q73 119 116 277l-289 737q-38 96 -64 118t-74 22h-25v93zM528 1110h-114l133 263h200z" />
    <glyph glyph-name="Thorn" unicode="&#xde;" horiz-adv-x="1208" 
d="M97 1404h443v-101h-53q-53 0 -70.5 -16t-17.5 -60v-143h276q199 0 300 -74q142 -104 142 -306q0 -183 -112 -287.5t-341 -104.5h-265v-143q0 -27 12 -43q9 -12 24 -17l52 -8h69v-101h-459v101h45q59 0 76 16t17 69v1030q0 52 -15 67q-22 20 -78 20h-45v101zM399 431h199
q186 0 265 69.5t79 196.5q0 94 -43.5 157t-113.5 89q-52 20 -187 20h-199v-532z" />
    <glyph glyph-name="thorn" unicode="&#xfe;" horiz-adv-x="1109" 
d="M22 1408l292 34l1 -615q63 88 133.5 127.5t168.5 39.5q176 0 291.5 -128t115.5 -357q0 -251 -140 -411q-111 -128 -291 -128q-92 0 -163 34q-53 26 -115 95v-336q0 -58 5 -71q6 -17 19 -23q10 -5 56 -5h52v-93h-411v93h36q59 0 71.5 14t12.5 91v1450q0 70 -14 84.5
t-70 14.5h-50v90zM301 481q0 -193 81 -287.5t202 -94.5q114 0 179 79q86 108 86 302q0 205 -91 305q-69 75 -180 75q-112 0 -194.5 -97.5t-82.5 -281.5z" />
    <glyph glyph-name="minus" unicode="&#x2212;" horiz-adv-x="1365" 
d="M135 746h1096v-158h-1096v158z" />
    <glyph glyph-name="multiply" unicode="&#xd7;" horiz-adv-x="1365" 
d="M176 1063l110 111l398 -398l398 398l111 -111l-397 -398l393 -394l-111 -110l-393 393l-396 -393l-111 110l395 394z" />
    <glyph glyph-name="onesuperior" unicode="&#xb9;" horiz-adv-x="640" 
d="M341 1442h69v-609q0 -56 8 -65t55 -9h42v-62h-339v62h46l25 1q26 0 33 8.5t7 56.5v378q0 58 -7 68t-27 10q-19 0 -40 -1l-54 -3v61q73 9 107.5 29t74.5 75z" />
    <glyph glyph-name="twosuperior" unicode="&#xb2;" horiz-adv-x="640" 
d="M77 1222v134q55 44 115 65.5t126 21.5q110 0 171.5 -55.5t61.5 -133.5q0 -76 -57.5 -167t-269.5 -289h192q45 0 52.5 5.5t7.5 31.5v52h101v-190h-521v74q234 209 314 325q54 79 54 152q0 51 -34 84t-93 33t-92 -30q-26 -23 -26 -71v-42h-102z" />
    <glyph glyph-name="threesuperior" unicode="&#xb3;" horiz-adv-x="640" 
d="M91 1235v142q70 39 116 52.5t103 13.5q120 0 182 -54t62 -131q0 -109 -131 -172q68 -12 105.5 -55.5t37.5 -109.5q0 -103 -73.5 -170.5t-206.5 -67.5q-61 0 -116 14t-103 41v154h105v-37q0 -53 19 -69q28 -24 102 -24q66 0 106.5 39.5t40.5 101.5q0 53 -25 83.5t-67 42.5
q-25 8 -122 14v84q117 0 160.5 34t43.5 90q0 54 -32.5 85t-93.5 31q-59 0 -92 -30q-22 -20 -22 -75v-27h-99z" />
    <glyph glyph-name="onehalf" unicode="&#xbd;" horiz-adv-x="1664" 
d="M341 1442h69v-609q0 -56 8 -65t55 -9h42v-62h-339v62h46l25 1q26 0 33 8.5t7 56.5v378q0 58 -7 68t-27 10q-19 0 -40 -1l-54 -3v61q73 9 107.5 29t74.5 75zM1214 1442h121l-883 -1481h-122zM1102 525v134q55 44 115 65.5t126 21.5q110 0 171.5 -55.5t61.5 -133.5
q0 -76 -57.5 -167t-269.5 -289h191q46 0 53.5 5.5t7.5 31.5v52h101v-190h-521v74q234 209 314 325q54 79 54 152q0 51 -34 84t-93 33t-93 -30q-25 -23 -25 -71v-42h-102z" />
    <glyph glyph-name="onequarter" unicode="&#xbc;" horiz-adv-x="1664" 
d="M341 1442h69v-609q0 -56 8 -65t55 -9h42v-62h-339v62h46l25 1q26 0 33 8.5t7 56.5v378q0 58 -7 68t-27 10q-19 0 -40 -1l-54 -3v61q73 9 107.5 29t74.5 75zM1238 1442h121l-883 -1481h-122zM1425 745h106v-483h98v-80h-98v-89q0 -19 7 -24q10 -7 41 -7h42v-62h-291v62h45
l18 -1q15 0 22 8t7 32v81h-357v91zM1169 268h253v325z" />
    <glyph glyph-name="threequarters" unicode="&#xbe;" horiz-adv-x="1664" 
d="M91 1235v142q70 39 116 52.5t103 13.5q120 0 182 -54t62 -131q0 -109 -131 -172q68 -12 105.5 -55.5t37.5 -109.5q0 -103 -73.5 -170.5t-206.5 -67.5q-61 0 -116 14t-103 41v154h105v-37q0 -53 19 -69q28 -24 102 -24q66 0 106.5 39.5t40.5 101.5q0 53 -25 83.5t-67 42.5
q-25 8 -122 14v84q117 0 160.5 34t43.5 90q0 54 -32.5 85t-93.5 31q-59 0 -92 -30q-22 -20 -22 -75v-27h-99zM1213 1442h121l-883 -1481h-122zM1424 745h106v-483h98v-80h-98v-89q0 -19 7 -24q10 -7 42 -7h41v-62h-291v62h45l18 -1q15 0 22 8t7 32v81h-357v91zM1168 268h253
v325z" />
    <glyph glyph-name="franc" unicode="&#x20a3;" horiz-adv-x="1408" 
d="M996 970q17 -93 21 -176q53 95 123.5 142t158.5 47q53 0 103 -24v-204h-112v29q0 35 -15.5 50.5t-43.5 15.5q-69 0 -127 -84q-87 -124 -87 -337v-268q0 -40 14.5 -54t55.5 -14h56v-93h-399v97h30q55 0 71.5 17t16.5 74v392q0 52 -19 68t-92 16h-336v-464q0 -56 5 -67
q8 -19 28 -29q13 -7 64 -7h59v-97h-470v101h45q46 0 64 9.5t25 29.5q5 14 5 80v981q0 66 -18 84t-83 18h-38v101h1037v-313h-129v113q0 39 -20.5 55.5t-93.5 16.5h-480v-486h389q64 0 81.5 17.5t17.5 79.5v83h93z" />
    <glyph glyph-name="Gbreve" unicode="&#x11e;" horiz-adv-x="1451" 
d="M937 668h471v-103h-57q-41 0 -58 -9t-24 -27q-4 -12 -4 -73v-355q-133 -77 -241 -108t-240 -31q-305 0 -495 199t-190 533q0 285 146 481q199 267 569 267q126 0 238.5 -28t212.5 -84v-320h-147v68q0 92 -22 130t-100.5 72t-195.5 34q-224 0 -355 -146
q-155 -173 -155 -460q0 -291 143.5 -449.5t360.5 -158.5q71 0 144.5 18t149.5 53v315q0 46 -18.5 62.5t-78.5 16.5h-54v103zM542 1766h109q8 -71 47 -107t97 -36q54 0 90.5 35t48.5 108h107q0 -112 -70 -183t-179 -71q-107 0 -175.5 67.5t-74.5 186.5z" />
    <glyph glyph-name="gbreve" unicode="&#x11f;" horiz-adv-x="1045" 
d="M1009 970v-120h-179q34 -46 47 -82q22 -64 22 -136q0 -114 -51.5 -198.5t-145.5 -123.5q-69 -29 -218 -36q-73 -3 -95 -9q-39 -11 -57 -32t-18 -41q0 -36 47 -52t244 -25q130 -6 163 -11q82 -12 131.5 -40t77.5 -76.5t28 -112.5q0 -89 -54.5 -167.5t-165.5 -120
t-282 -41.5q-162 0 -239 22q-108 30 -157.5 84t-49.5 133q0 80 54.5 141.5t168.5 88.5q-70 31 -92 55q-28 33 -28 76q0 52 39.5 96t135.5 73q-94 37 -150 120t-56 199q0 162 105 263.5t288 101.5q47 0 91.5 -7t87.5 -22h308zM291 643q0 -130 64 -198t169 -68q96 0 156 65.5
t60 191.5q0 130 -62.5 198.5t-161.5 68.5q-67 0 -118.5 -31t-79 -95t-27.5 -132zM204 -183q0 -65 54 -102q87 -59 259 -59q183 0 270 62q63 45 63 115q0 57 -60 97t-267 40q-191 0 -255 -45.5t-64 -107.5zM273 1364h109q8 -71 47 -107t97 -36q54 0 90.5 35t48.5 108h107
q0 -112 -70 -183t-179 -71q-107 0 -175.5 67.5t-74.5 186.5z" />
    <glyph glyph-name="Idot" unicode="&#x130;" 
d="M114 1404h454v-101h-35q-68 0 -89 -21q-15 -16 -15 -96v-998q0 -54 16 -68q21 -19 88 -19h35v-101h-454v101h42q65 0 80.5 16.5t15.5 93.5v1023q0 38 -18.5 53.5t-77.5 15.5h-42v101zM341 1693q38 0 64.5 -26.5t26.5 -64.5q0 -37 -26.5 -63.5t-64.5 -26.5
q-37 0 -63.5 26.5t-26.5 63.5q0 38 26.5 64.5t63.5 26.5z" />
    <glyph glyph-name="Scedilla" unicode="&#x15e;" horiz-adv-x="1088" 
d="M950 1354v-310h-138v54q0 95 -17.5 128.5t-82.5 63.5t-157 30q-120 0 -186 -60.5t-66 -149.5q0 -82 55 -144q55 -63 282 -177q154 -77 203 -114q70 -53 113 -129.5t43 -177.5q0 -176 -122.5 -290.5t-343.5 -114.5q-128 0 -237.5 21t-201.5 62v352h147v-78
q0 -85 28.5 -131.5t99 -75.5t162.5 -29q132 0 209.5 71.5t77.5 177.5q0 93 -52 157q-52 63 -232.5 153.5t-238.5 133.5q-83 62 -127 139.5t-44 163.5q0 93 52.5 179t153 134.5t237.5 48.5q86 0 194 -24t189 -64zM507 21h111l-32 -102q70 0 115.5 -43.5t45.5 -105.5
q0 -71 -57.5 -120.5t-174.5 -49.5q-86 0 -177 27v95q85 -24 160 -24q62 0 93 24q23 18 23 48t-23 49q-29 24 -83 24q-14 0 -51 -3z" />
    <glyph glyph-name="scedilla" unicode="&#x15f;" horiz-adv-x="853" 
d="M729 937v-252h-124v71q0 56 -15 81.5t-60.5 44.5t-105.5 19q-85 0 -130 -40t-45 -99q0 -38 21.5 -70.5t56.5 -53t156.5 -74.5t162.5 -81q65 -44 99 -98.5t34 -124.5q0 -119 -90 -204.5t-278 -85.5q-83 0 -165 16t-163 47v277h133v-79q0 -81 37 -112q54 -46 161 -46
q100 0 151 46t51 117q0 56 -36 95q-36 38 -178 102.5t-181 90.5q-59 39 -91.5 90t-32.5 120q0 111 87 188t248 77q84 0 158 -15.5t139 -46.5zM354 21h111l-32 -102q70 0 115.5 -43.5t45.5 -105.5q0 -71 -57.5 -120.5t-174.5 -49.5q-86 0 -177 27v95q85 -24 160 -24
q62 0 93 24q23 18 23 48t-23 49q-29 24 -83 24q-14 0 -51 -3z" />
    <glyph glyph-name="Cacute" unicode="&#x106;" horiz-adv-x="1365" 
d="M1259 1326v-317h-147q-1 153 -19.5 192t-91.5 71q-95 41 -214 41q-214 0 -353.5 -157t-139.5 -448q0 -279 143 -437.5t347 -158.5q122 0 251 47t224 132v-171q-94 -76 -226.5 -117t-268.5 -41q-191 0 -343 91.5t-233.5 261.5t-81.5 377q0 287 147 487q192 263 542 263
q126 0 248 -30t216 -86zM797 1512h-114l133 263h200z" />
    <glyph glyph-name="cacute" unicode="&#x107;" horiz-adv-x="981" 
d="M885 912v-285h-137v88q0 89 -35 121q-49 45 -148 45q-128 0 -213 -99t-85 -291q0 -188 84 -283.5t208 -95.5q156 0 326 137v-150q-159 -129 -354 -129q-193 0 -314 132t-121 368q0 243 135 383.5t343 140.5q81 0 158.5 -20.5t152.5 -61.5zM597 1110h-114l133 263h200z
" />
    <glyph glyph-name="Ccaron" unicode="&#x10c;" horiz-adv-x="1365" 
d="M1259 1326v-317h-147q-1 153 -19.5 192t-91.5 71q-95 41 -214 41q-214 0 -353.5 -157t-139.5 -448q0 -279 143 -437.5t347 -158.5q122 0 251 47t224 132v-171q-94 -76 -226.5 -117t-268.5 -41q-191 0 -343 91.5t-233.5 261.5t-81.5 377q0 287 147 487q192 263 542 263
q126 0 248 -30t216 -86zM881 1775h138l-196 -263h-166l-194 263h143l138 -181z" />
    <glyph glyph-name="ccaron" unicode="&#x10d;" horiz-adv-x="981" 
d="M885 912v-285h-137v88q0 89 -35 121q-49 45 -148 45q-128 0 -213 -99t-85 -291q0 -188 84 -283.5t208 -95.5q156 0 326 137v-150q-159 -129 -354 -129q-193 0 -314 132t-121 368q0 243 135 383.5t343 140.5q81 0 158.5 -20.5t152.5 -61.5zM681 1373h138l-196 -263h-166
l-194 263h143l138 -181z" />
    <glyph glyph-name="dmacron" unicode="&#x111;" horiz-adv-x="1109" 
d="M952 1218h137v-113h-137v-894q0 -68 14 -84t60 -16q17 0 63 3v-89l-282 -25q-12 61 -16 143q-50 -83 -125 -125t-176 -42q-178 0 -291.5 127.5t-113.5 360.5q0 250 126 392.5t308 142.5q86 0 154 -32.5t118 -97.5v236h-346v113h346v22q0 57 -14 71t-67 14l-62 -1v88
l304 30v-224zM259 488q0 -196 77 -288t194 -92q111 0 193 98t82 289q0 187 -80 280t-201 93q-113 0 -189 -93.5t-76 -286.5z" />
    <glyph glyph-name="sfthyphen" unicode="&#xad;" horiz-adv-x="661" 
d="M64 559h534v-157h-534v157z" />
    <glyph glyph-name="overscore" unicode="&#xaf;" horiz-adv-x="1024" 
d="M103 1685h1048v-102h-1048v102z" />
    <glyph glyph-name="middot" unicode="&#xb7;" horiz-adv-x="491" 
d="M245 814q46 0 78.5 -32.5t32.5 -78.5t-32.5 -78.5t-78.5 -32.5t-78.5 32.5t-32.5 78.5t32.5 78.5t78.5 32.5z" />
    </font>
</defs>
</svg>
